%TF.GenerationSoftware,KiCad,Pcbnew,9.0.6*%
%TF.CreationDate,2025-12-26T02:04:48+08:00*%
%TF.ProjectId,vga_video_card,7667615f-7669-4646-956f-5f636172642e,rev?*%
%TF.SameCoordinates,Original*%
%TF.FileFunction,Soldermask,Bot*%
%TF.FilePolarity,Negative*%
%FSLAX46Y46*%
G04 Gerber Fmt 4.6, Leading zero omitted, Abs format (unit mm)*
G04 Created by KiCad (PCBNEW 9.0.6) date 2025-12-26 02:04:48*
%MOMM*%
%LPD*%
G01*
G04 APERTURE LIST*
G04 Aperture macros list*
%AMRoundRect*
0 Rectangle with rounded corners*
0 $1 Rounding radius*
0 $2 $3 $4 $5 $6 $7 $8 $9 X,Y pos of 4 corners*
0 Add a 4 corners polygon primitive as box body*
4,1,4,$2,$3,$4,$5,$6,$7,$8,$9,$2,$3,0*
0 Add four circle primitives for the rounded corners*
1,1,$1+$1,$2,$3*
1,1,$1+$1,$4,$5*
1,1,$1+$1,$6,$7*
1,1,$1+$1,$8,$9*
0 Add four rect primitives between the rounded corners*
20,1,$1+$1,$2,$3,$4,$5,0*
20,1,$1+$1,$4,$5,$6,$7,0*
20,1,$1+$1,$6,$7,$8,$9,0*
20,1,$1+$1,$8,$9,$2,$3,0*%
G04 Aperture macros list end*
%ADD10C,1.600000*%
%ADD11RoundRect,0.250000X0.550000X-0.550000X0.550000X0.550000X-0.550000X0.550000X-0.550000X-0.550000X0*%
%ADD12RoundRect,0.250000X-0.550000X-0.550000X0.550000X-0.550000X0.550000X0.550000X-0.550000X0.550000X0*%
%ADD13C,1.700000*%
%ADD14R,1.700000X1.700000*%
%ADD15R,1.600000X1.600000*%
%ADD16RoundRect,0.250000X0.450000X-0.450000X0.450000X0.450000X-0.450000X0.450000X-0.450000X-0.450000X0*%
%ADD17C,1.400000*%
%ADD18C,1.440000*%
%ADD19C,0.800000*%
%ADD20C,6.400000*%
%ADD21C,2.000000*%
%ADD22C,4.000000*%
G04 APERTURE END LIST*
D10*
%TO.C,R10*%
X88138000Y-109728000D03*
X88138000Y-117348000D03*
%TD*%
%TO.C,R2*%
X80772000Y-137922000D03*
X80772000Y-130302000D03*
%TD*%
D11*
%TO.C,U33*%
X80772000Y-127396000D03*
D10*
X83312000Y-127396000D03*
X85852000Y-127396000D03*
X88392000Y-127396000D03*
X90932000Y-127396000D03*
X93472000Y-127396000D03*
X96012000Y-127396000D03*
X98552000Y-127396000D03*
X98552000Y-119776000D03*
X96012000Y-119776000D03*
X93472000Y-119776000D03*
X90932000Y-119776000D03*
X88392000Y-119776000D03*
X85852000Y-119776000D03*
X83312000Y-119776000D03*
X80772000Y-119776000D03*
%TD*%
%TO.C,U12*%
X58928000Y-81280000D03*
X58928000Y-83820000D03*
X58928000Y-86360000D03*
X58928000Y-88900000D03*
X58928000Y-91440000D03*
X58928000Y-93980000D03*
X58928000Y-96520000D03*
X51308000Y-96520000D03*
X51308000Y-93980000D03*
X51308000Y-91440000D03*
X51308000Y-88900000D03*
X51308000Y-86360000D03*
X51308000Y-83820000D03*
D12*
X51308000Y-81280000D03*
%TD*%
D10*
%TO.C,U3*%
X49022000Y-41148000D03*
X49022000Y-43688000D03*
X49022000Y-46228000D03*
X49022000Y-48768000D03*
X49022000Y-51308000D03*
X49022000Y-53848000D03*
X49022000Y-56388000D03*
X49022000Y-58928000D03*
X41402000Y-58928000D03*
X41402000Y-56388000D03*
X41402000Y-53848000D03*
X41402000Y-51308000D03*
X41402000Y-48768000D03*
X41402000Y-46228000D03*
X41402000Y-43688000D03*
D12*
X41402000Y-41148000D03*
%TD*%
D10*
%TO.C,U2*%
X39116000Y-41148000D03*
X39116000Y-43688000D03*
X39116000Y-46228000D03*
X39116000Y-48768000D03*
X39116000Y-51308000D03*
X39116000Y-53848000D03*
X39116000Y-56388000D03*
X39116000Y-58928000D03*
X31496000Y-58928000D03*
X31496000Y-56388000D03*
X31496000Y-53848000D03*
X31496000Y-51308000D03*
X31496000Y-48768000D03*
X31496000Y-46228000D03*
X31496000Y-43688000D03*
D12*
X31496000Y-41148000D03*
%TD*%
D10*
%TO.C,U9*%
X39121000Y-81280000D03*
X39121000Y-83820000D03*
X39121000Y-86360000D03*
X39121000Y-88900000D03*
X39121000Y-91440000D03*
X39121000Y-93980000D03*
X39121000Y-96520000D03*
X31501000Y-96520000D03*
X31501000Y-93980000D03*
X31501000Y-91440000D03*
X31501000Y-88900000D03*
X31501000Y-86360000D03*
X31501000Y-83820000D03*
D12*
X31501000Y-81280000D03*
%TD*%
D10*
%TO.C,U1*%
X29210000Y-41148000D03*
X29210000Y-43688000D03*
X29210000Y-46228000D03*
X29210000Y-48768000D03*
X29210000Y-51308000D03*
X29210000Y-53848000D03*
X29210000Y-56388000D03*
X29210000Y-58928000D03*
X21590000Y-58928000D03*
X21590000Y-56388000D03*
X21590000Y-53848000D03*
X21590000Y-51308000D03*
X21590000Y-48768000D03*
X21590000Y-46228000D03*
X21590000Y-43688000D03*
D12*
X21590000Y-41148000D03*
%TD*%
D13*
%TO.C,J6*%
X132334000Y-136906000D03*
X134874000Y-136906000D03*
X132334000Y-134366000D03*
X134874000Y-134366000D03*
X132334000Y-131826000D03*
X134874000Y-131826000D03*
X132334000Y-129286000D03*
X134874000Y-129286000D03*
X132334000Y-126746000D03*
X134874000Y-126746000D03*
X132334000Y-124206000D03*
X134874000Y-124206000D03*
X132334000Y-121666000D03*
X134874000Y-121666000D03*
X132334000Y-119126000D03*
X134874000Y-119126000D03*
X132334000Y-116586000D03*
X134874000Y-116586000D03*
X132334000Y-114046000D03*
X134874000Y-114046000D03*
X132334000Y-111506000D03*
X134874000Y-111506000D03*
X132334000Y-108966000D03*
X134874000Y-108966000D03*
X132334000Y-106426000D03*
X134874000Y-106426000D03*
X132334000Y-103886000D03*
X134874000Y-103886000D03*
X132334000Y-101346000D03*
X134874000Y-101346000D03*
X132334000Y-98806000D03*
X134874000Y-98806000D03*
X132334000Y-96266000D03*
X134874000Y-96266000D03*
X132334000Y-93726000D03*
X134874000Y-93726000D03*
X132334000Y-91186000D03*
X134874000Y-91186000D03*
X132334000Y-88646000D03*
D14*
X134874000Y-88646000D03*
%TD*%
D12*
%TO.C,U47*%
X81280000Y-20320000D03*
D10*
X81280000Y-22860000D03*
X81280000Y-25400000D03*
X81280000Y-27940000D03*
X81280000Y-30480000D03*
X81280000Y-33020000D03*
X81280000Y-35560000D03*
X81280000Y-38100000D03*
X88900000Y-38100000D03*
X88900000Y-35560000D03*
X88900000Y-33020000D03*
X88900000Y-30480000D03*
X88900000Y-27940000D03*
X88900000Y-25400000D03*
X88900000Y-22860000D03*
X88900000Y-20320000D03*
%TD*%
D15*
%TO.C,Y1*%
X51562000Y-34798000D03*
D10*
X66802000Y-34798000D03*
X66802000Y-27178000D03*
X51562000Y-27178000D03*
%TD*%
D12*
%TO.C,U14*%
X61214000Y-79248000D03*
D10*
X61214000Y-81788000D03*
X61214000Y-84328000D03*
X61214000Y-86868000D03*
X61214000Y-89408000D03*
X61214000Y-91948000D03*
X61214000Y-94488000D03*
X61214000Y-97028000D03*
X68834000Y-97028000D03*
X68834000Y-94488000D03*
X68834000Y-91948000D03*
X68834000Y-89408000D03*
X68834000Y-86868000D03*
X68834000Y-84328000D03*
X68834000Y-81788000D03*
X68834000Y-79248000D03*
%TD*%
D16*
%TO.C,SW3*%
X27603000Y-35092000D03*
D17*
X27603000Y-32592000D03*
X27603000Y-30092000D03*
X30903000Y-30092000D03*
X30903000Y-32592000D03*
X30903000Y-35092000D03*
%TD*%
D12*
%TO.C,U44*%
X71374000Y-41402000D03*
D10*
X71374000Y-43942000D03*
X71374000Y-46482000D03*
X71374000Y-49022000D03*
X71374000Y-51562000D03*
X71374000Y-54102000D03*
X71374000Y-56642000D03*
X71374000Y-59182000D03*
X78994000Y-59182000D03*
X78994000Y-56642000D03*
X78994000Y-54102000D03*
X78994000Y-51562000D03*
X78994000Y-49022000D03*
X78994000Y-46482000D03*
X78994000Y-43942000D03*
X78994000Y-41402000D03*
%TD*%
D12*
%TO.C,U45*%
X81280000Y-41402000D03*
D10*
X81280000Y-43942000D03*
X81280000Y-46482000D03*
X81280000Y-49022000D03*
X81280000Y-51562000D03*
X81280000Y-54102000D03*
X81280000Y-56642000D03*
X81280000Y-59182000D03*
X88900000Y-59182000D03*
X88900000Y-56642000D03*
X88900000Y-54102000D03*
X88900000Y-51562000D03*
X88900000Y-49022000D03*
X88900000Y-46482000D03*
X88900000Y-43942000D03*
X88900000Y-41402000D03*
%TD*%
D11*
%TO.C,U18*%
X32004000Y-128519000D03*
D10*
X34544000Y-128519000D03*
X37084000Y-128519000D03*
X39624000Y-128519000D03*
X42164000Y-128519000D03*
X44704000Y-128519000D03*
X47244000Y-128519000D03*
X47244000Y-120899000D03*
X44704000Y-120899000D03*
X42164000Y-120899000D03*
X39624000Y-120899000D03*
X37084000Y-120899000D03*
X34544000Y-120899000D03*
X32004000Y-120899000D03*
%TD*%
D12*
%TO.C,U46*%
X71374000Y-20320000D03*
D10*
X71374000Y-22860000D03*
X71374000Y-25400000D03*
X71374000Y-27940000D03*
X71374000Y-30480000D03*
X71374000Y-33020000D03*
X71374000Y-35560000D03*
X71374000Y-38100000D03*
X78994000Y-38100000D03*
X78994000Y-35560000D03*
X78994000Y-33020000D03*
X78994000Y-30480000D03*
X78994000Y-27940000D03*
X78994000Y-25400000D03*
X78994000Y-22860000D03*
X78994000Y-20320000D03*
%TD*%
%TO.C,R17*%
X128524000Y-30226000D03*
X120904000Y-30226000D03*
%TD*%
D12*
%TO.C,U54*%
X110998000Y-75946000D03*
D10*
X110998000Y-78486000D03*
X110998000Y-81026000D03*
X110998000Y-83566000D03*
X110998000Y-86106000D03*
X110998000Y-88646000D03*
X110998000Y-91186000D03*
X110998000Y-93726000D03*
X118618000Y-93726000D03*
X118618000Y-91186000D03*
X118618000Y-88646000D03*
X118618000Y-86106000D03*
X118618000Y-83566000D03*
X118618000Y-81026000D03*
X118618000Y-78486000D03*
X118618000Y-75946000D03*
%TD*%
D12*
%TO.C,U31*%
X81280000Y-62484000D03*
D10*
X81280000Y-65024000D03*
X81280000Y-67564000D03*
X81280000Y-70104000D03*
X81280000Y-72644000D03*
X81280000Y-75184000D03*
X81280000Y-77724000D03*
X81280000Y-80264000D03*
X81280000Y-82804000D03*
X81280000Y-85344000D03*
X81280000Y-87884000D03*
X81280000Y-90424000D03*
X81280000Y-92964000D03*
X81280000Y-95504000D03*
X88900000Y-95504000D03*
X88900000Y-92964000D03*
X88900000Y-90424000D03*
X88900000Y-87884000D03*
X88900000Y-85344000D03*
X88900000Y-82804000D03*
X88900000Y-80264000D03*
X88900000Y-77724000D03*
X88900000Y-75184000D03*
X88900000Y-72644000D03*
X88900000Y-70104000D03*
X88900000Y-67564000D03*
X88900000Y-65024000D03*
X88900000Y-62484000D03*
%TD*%
D12*
%TO.C,U29*%
X101092000Y-56896000D03*
D10*
X101092000Y-59436000D03*
X101092000Y-61976000D03*
X101092000Y-64516000D03*
X101092000Y-67056000D03*
X101092000Y-69596000D03*
X101092000Y-72136000D03*
X101092000Y-74676000D03*
X108712000Y-74676000D03*
X108712000Y-72136000D03*
X108712000Y-69596000D03*
X108712000Y-67056000D03*
X108712000Y-64516000D03*
X108712000Y-61976000D03*
X108712000Y-59436000D03*
X108712000Y-56896000D03*
%TD*%
D12*
%TO.C,U25*%
X61214000Y-100330000D03*
D10*
X61214000Y-102870000D03*
X61214000Y-105410000D03*
X61214000Y-107950000D03*
X61214000Y-110490000D03*
X61214000Y-113030000D03*
X61214000Y-115570000D03*
X61214000Y-118110000D03*
X68834000Y-118110000D03*
X68834000Y-115570000D03*
X68834000Y-113030000D03*
X68834000Y-110490000D03*
X68834000Y-107950000D03*
X68834000Y-105410000D03*
X68834000Y-102870000D03*
X68834000Y-100330000D03*
%TD*%
D12*
%TO.C,U4*%
X21590000Y-62484000D03*
D10*
X21590000Y-65024000D03*
X21590000Y-67564000D03*
X21590000Y-70104000D03*
X21590000Y-72644000D03*
X21590000Y-75184000D03*
X21590000Y-77724000D03*
X29210000Y-77724000D03*
X29210000Y-75184000D03*
X29210000Y-72644000D03*
X29210000Y-70104000D03*
X29210000Y-67564000D03*
X29210000Y-65024000D03*
X29210000Y-62484000D03*
%TD*%
D12*
%TO.C,U28*%
X91186000Y-56896000D03*
D10*
X91186000Y-59436000D03*
X91186000Y-61976000D03*
X91186000Y-64516000D03*
X91186000Y-67056000D03*
X91186000Y-69596000D03*
X91186000Y-72136000D03*
X91186000Y-74676000D03*
X98806000Y-74676000D03*
X98806000Y-72136000D03*
X98806000Y-69596000D03*
X98806000Y-67056000D03*
X98806000Y-64516000D03*
X98806000Y-61976000D03*
X98806000Y-59436000D03*
X98806000Y-56896000D03*
%TD*%
D12*
%TO.C,U40*%
X111003000Y-115570000D03*
D10*
X111003000Y-118110000D03*
X111003000Y-120650000D03*
X111003000Y-123190000D03*
X111003000Y-125730000D03*
X111003000Y-128270000D03*
X111003000Y-130810000D03*
X118623000Y-130810000D03*
X118623000Y-128270000D03*
X118623000Y-125730000D03*
X118623000Y-123190000D03*
X118623000Y-120650000D03*
X118623000Y-118110000D03*
X118623000Y-115570000D03*
%TD*%
%TO.C,R11*%
X91694000Y-117348000D03*
X91694000Y-109728000D03*
%TD*%
D16*
%TO.C,SW5*%
X40182500Y-35052000D03*
D17*
X40182500Y-32552000D03*
X40182500Y-30052000D03*
X43482500Y-30052000D03*
X43482500Y-32552000D03*
X43482500Y-35052000D03*
%TD*%
D12*
%TO.C,U48*%
X91186000Y-35814000D03*
D10*
X91186000Y-38354000D03*
X91186000Y-40894000D03*
X91186000Y-43434000D03*
X91186000Y-45974000D03*
X91186000Y-48514000D03*
X91186000Y-51054000D03*
X91186000Y-53594000D03*
X98806000Y-53594000D03*
X98806000Y-51054000D03*
X98806000Y-48514000D03*
X98806000Y-45974000D03*
X98806000Y-43434000D03*
X98806000Y-40894000D03*
X98806000Y-38354000D03*
X98806000Y-35814000D03*
%TD*%
D14*
%TO.C,J7*%
X134874000Y-67056000D03*
D13*
X132334000Y-67056000D03*
X134874000Y-69596000D03*
X132334000Y-69596000D03*
X134874000Y-72136000D03*
X132334000Y-72136000D03*
X134874000Y-74676000D03*
X132334000Y-74676000D03*
X134874000Y-77216000D03*
X132334000Y-77216000D03*
X134874000Y-79756000D03*
X132334000Y-79756000D03*
X134874000Y-82296000D03*
X132334000Y-82296000D03*
X134874000Y-84836000D03*
X132334000Y-84836000D03*
%TD*%
D10*
%TO.C,R12*%
X95250000Y-117348000D03*
X95250000Y-109728000D03*
%TD*%
D18*
%TO.C,RV2 (R)*%
X123444000Y-58674000D03*
X120904000Y-61214000D03*
X123444000Y-63754000D03*
%TD*%
D12*
%TO.C,U27*%
X61214000Y-39624000D03*
D10*
X61214000Y-42164000D03*
X61214000Y-44704000D03*
X61214000Y-47244000D03*
X61214000Y-49784000D03*
X61214000Y-52324000D03*
X61214000Y-54864000D03*
X68834000Y-54864000D03*
X68834000Y-52324000D03*
X68834000Y-49784000D03*
X68834000Y-47244000D03*
X68834000Y-44704000D03*
X68834000Y-42164000D03*
X68834000Y-39624000D03*
%TD*%
D12*
%TO.C,U24*%
X51313000Y-131572000D03*
D10*
X51313000Y-134112000D03*
X51313000Y-136652000D03*
X51313000Y-139192000D03*
X51313000Y-141732000D03*
X51313000Y-144272000D03*
X51313000Y-146812000D03*
X51313000Y-149352000D03*
X58933000Y-149352000D03*
X58933000Y-146812000D03*
X58933000Y-144272000D03*
X58933000Y-141732000D03*
X58933000Y-139192000D03*
X58933000Y-136652000D03*
X58933000Y-134112000D03*
X58933000Y-131572000D03*
%TD*%
D19*
%TO.C,H2*%
X131476000Y-22606000D03*
X132178944Y-20908944D03*
X132178944Y-24303056D03*
X133876000Y-20206000D03*
D20*
X133876000Y-22606000D03*
D19*
X133876000Y-25006000D03*
X135573056Y-20908944D03*
X135573056Y-24303056D03*
X136276000Y-22606000D03*
%TD*%
D12*
%TO.C,U23*%
X41407000Y-131572000D03*
D10*
X41407000Y-134112000D03*
X41407000Y-136652000D03*
X41407000Y-139192000D03*
X41407000Y-141732000D03*
X41407000Y-144272000D03*
X41407000Y-146812000D03*
X41407000Y-149352000D03*
X49027000Y-149352000D03*
X49027000Y-146812000D03*
X49027000Y-144272000D03*
X49027000Y-141732000D03*
X49027000Y-139192000D03*
X49027000Y-136652000D03*
X49027000Y-134112000D03*
X49027000Y-131572000D03*
%TD*%
D12*
%TO.C,U16*%
X31501000Y-100076000D03*
D10*
X31501000Y-102616000D03*
X31501000Y-105156000D03*
X31501000Y-107696000D03*
X31501000Y-110236000D03*
X31501000Y-112776000D03*
X31501000Y-115316000D03*
X31501000Y-117856000D03*
X39121000Y-117856000D03*
X39121000Y-115316000D03*
X39121000Y-112776000D03*
X39121000Y-110236000D03*
X39121000Y-107696000D03*
X39121000Y-105156000D03*
X39121000Y-102616000D03*
X39121000Y-100076000D03*
%TD*%
D12*
%TO.C,U6*%
X41402000Y-62484000D03*
D10*
X41402000Y-65024000D03*
X41402000Y-67564000D03*
X41402000Y-70104000D03*
X41402000Y-72644000D03*
X41402000Y-75184000D03*
X41402000Y-77724000D03*
X49022000Y-77724000D03*
X49022000Y-75184000D03*
X49022000Y-72644000D03*
X49022000Y-70104000D03*
X49022000Y-67564000D03*
X49022000Y-65024000D03*
X49022000Y-62484000D03*
%TD*%
D14*
%TO.C,J3*%
X102616000Y-100330000D03*
D13*
X102616000Y-102870000D03*
X102616000Y-105410000D03*
X102616000Y-107950000D03*
X102616000Y-110490000D03*
X102616000Y-113030000D03*
X102616000Y-115570000D03*
X102616000Y-118110000D03*
X102616000Y-120650000D03*
X102616000Y-123190000D03*
X102616000Y-125730000D03*
X102616000Y-128270000D03*
X102616000Y-130810000D03*
X102616000Y-133350000D03*
X102616000Y-135890000D03*
X102616000Y-138430000D03*
X102616000Y-140970000D03*
X102616000Y-143510000D03*
X102616000Y-146050000D03*
X102616000Y-148590000D03*
%TD*%
D21*
%TO.C,SW1*%
X46176000Y-25074000D03*
X39676000Y-25074000D03*
X46176000Y-20574000D03*
X39676000Y-20574000D03*
%TD*%
D11*
%TO.C,U32*%
X80772000Y-148839000D03*
D10*
X83312000Y-148839000D03*
X85852000Y-148839000D03*
X88392000Y-148839000D03*
X90932000Y-148839000D03*
X93472000Y-148839000D03*
X96012000Y-148839000D03*
X98552000Y-148839000D03*
X98552000Y-141219000D03*
X96012000Y-141219000D03*
X93472000Y-141219000D03*
X90932000Y-141219000D03*
X88392000Y-141219000D03*
X85852000Y-141219000D03*
X83312000Y-141219000D03*
X80772000Y-141219000D03*
%TD*%
D12*
%TO.C,U56*%
X120904000Y-130048000D03*
D10*
X120904000Y-132588000D03*
X120904000Y-135128000D03*
X120904000Y-137668000D03*
X120904000Y-140208000D03*
X120904000Y-142748000D03*
X120904000Y-145288000D03*
X120904000Y-147828000D03*
X128524000Y-147828000D03*
X128524000Y-145288000D03*
X128524000Y-142748000D03*
X128524000Y-140208000D03*
X128524000Y-137668000D03*
X128524000Y-135128000D03*
X128524000Y-132588000D03*
X128524000Y-130048000D03*
%TD*%
%TO.C,R13*%
X98806000Y-117348000D03*
X98806000Y-109728000D03*
%TD*%
D19*
%TO.C,H4*%
X131476000Y-145606000D03*
X132178944Y-143908944D03*
X132178944Y-147303056D03*
X133876000Y-143206000D03*
D20*
X133876000Y-145606000D03*
D19*
X133876000Y-148006000D03*
X135573056Y-143908944D03*
X135573056Y-147303056D03*
X136276000Y-145606000D03*
%TD*%
D12*
%TO.C,U5*%
X31496000Y-62484000D03*
D10*
X31496000Y-65024000D03*
X31496000Y-67564000D03*
X31496000Y-70104000D03*
X31496000Y-72644000D03*
X31496000Y-75184000D03*
X31496000Y-77724000D03*
X39116000Y-77724000D03*
X39116000Y-75184000D03*
X39116000Y-72644000D03*
X39116000Y-70104000D03*
X39116000Y-67564000D03*
X39116000Y-65024000D03*
X39116000Y-62484000D03*
%TD*%
D11*
%TO.C,U19*%
X53086000Y-128519000D03*
D10*
X55626000Y-128519000D03*
X58166000Y-128519000D03*
X60706000Y-128519000D03*
X63246000Y-128519000D03*
X65786000Y-128519000D03*
X68326000Y-128519000D03*
X68326000Y-120899000D03*
X65786000Y-120899000D03*
X63246000Y-120899000D03*
X60706000Y-120899000D03*
X58166000Y-120899000D03*
X55626000Y-120899000D03*
X53086000Y-120899000D03*
%TD*%
D12*
%TO.C,U52*%
X91186000Y-77724000D03*
D10*
X91186000Y-80264000D03*
X91186000Y-82804000D03*
X91186000Y-85344000D03*
X91186000Y-87884000D03*
X91186000Y-90424000D03*
X91186000Y-92964000D03*
X91186000Y-95504000D03*
X98806000Y-95504000D03*
X98806000Y-92964000D03*
X98806000Y-90424000D03*
X98806000Y-87884000D03*
X98806000Y-85344000D03*
X98806000Y-82804000D03*
X98806000Y-80264000D03*
X98806000Y-77724000D03*
%TD*%
D18*
%TO.C,RV3 (G)*%
X123640000Y-45466000D03*
X121100000Y-48006000D03*
X123640000Y-50546000D03*
%TD*%
D10*
%TO.C,R18*%
X130810000Y-30226000D03*
X138430000Y-30226000D03*
%TD*%
D22*
%TO.C,J1*%
X131694000Y-61249000D03*
X131694000Y-36249000D03*
D15*
X129804000Y-44434000D03*
D10*
X129804000Y-46724000D03*
X129804000Y-49014000D03*
X129804000Y-51304000D03*
X129804000Y-53594000D03*
X131704000Y-43289000D03*
X131704000Y-45579000D03*
X131704000Y-47869000D03*
X131704000Y-50159000D03*
X131704000Y-52449000D03*
X133604000Y-44434000D03*
X133604000Y-46724000D03*
X133604000Y-49014000D03*
X133604000Y-51304000D03*
X133604000Y-53594000D03*
%TD*%
D16*
%TO.C,SW2*%
X21338000Y-35092000D03*
D17*
X21338000Y-32592000D03*
X21338000Y-30092000D03*
X24638000Y-30092000D03*
X24638000Y-32592000D03*
X24638000Y-35092000D03*
%TD*%
D12*
%TO.C,U55*%
X120904000Y-108966000D03*
D10*
X120904000Y-111506000D03*
X120904000Y-114046000D03*
X120904000Y-116586000D03*
X120904000Y-119126000D03*
X120904000Y-121666000D03*
X120904000Y-124206000D03*
X120904000Y-126746000D03*
X128524000Y-126746000D03*
X128524000Y-124206000D03*
X128524000Y-121666000D03*
X128524000Y-119126000D03*
X128524000Y-116586000D03*
X128524000Y-114046000D03*
X128524000Y-111506000D03*
X128524000Y-108966000D03*
%TD*%
%TO.C,R15*%
X108712000Y-30226000D03*
X101092000Y-30226000D03*
%TD*%
%TO.C,R5*%
X91440000Y-137922000D03*
X91440000Y-130302000D03*
%TD*%
%TO.C,R16*%
X118618000Y-30226000D03*
X110998000Y-30226000D03*
%TD*%
D12*
%TO.C,U38*%
X120909000Y-66802000D03*
D10*
X120909000Y-69342000D03*
X120909000Y-71882000D03*
X120909000Y-74422000D03*
X120909000Y-76962000D03*
X120909000Y-79502000D03*
X120909000Y-82042000D03*
X120909000Y-84582000D03*
X128529000Y-84582000D03*
X128529000Y-82042000D03*
X128529000Y-79502000D03*
X128529000Y-76962000D03*
X128529000Y-74422000D03*
X128529000Y-71882000D03*
X128529000Y-69342000D03*
X128529000Y-66802000D03*
%TD*%
D16*
%TO.C,SW4*%
X33868000Y-35092000D03*
D17*
X33868000Y-32592000D03*
X33868000Y-30092000D03*
X37168000Y-30092000D03*
X37168000Y-32592000D03*
X37168000Y-35092000D03*
%TD*%
D12*
%TO.C,U39*%
X111008000Y-97028000D03*
D10*
X111008000Y-99568000D03*
X111008000Y-102108000D03*
X111008000Y-104648000D03*
X111008000Y-107188000D03*
X111008000Y-109728000D03*
X111008000Y-112268000D03*
X118628000Y-112268000D03*
X118628000Y-109728000D03*
X118628000Y-107188000D03*
X118628000Y-104648000D03*
X118628000Y-102108000D03*
X118628000Y-99568000D03*
X118628000Y-97028000D03*
%TD*%
D12*
%TO.C,U11*%
X51308000Y-41148000D03*
D10*
X51308000Y-43688000D03*
X51308000Y-46228000D03*
X51308000Y-48768000D03*
X51308000Y-51308000D03*
X51308000Y-53848000D03*
X51308000Y-56388000D03*
X51308000Y-58928000D03*
X58928000Y-58928000D03*
X58928000Y-56388000D03*
X58928000Y-53848000D03*
X58928000Y-51308000D03*
X58928000Y-48768000D03*
X58928000Y-46228000D03*
X58928000Y-43688000D03*
X58928000Y-41148000D03*
%TD*%
D12*
%TO.C,U10*%
X41407000Y-81280000D03*
D10*
X41407000Y-83820000D03*
X41407000Y-86360000D03*
X41407000Y-88900000D03*
X41407000Y-91440000D03*
X41407000Y-93980000D03*
X41407000Y-96520000D03*
X49027000Y-96520000D03*
X49027000Y-93980000D03*
X49027000Y-91440000D03*
X49027000Y-88900000D03*
X49027000Y-86360000D03*
X49027000Y-83820000D03*
X49027000Y-81280000D03*
%TD*%
D11*
%TO.C,U34*%
X81026000Y-107183000D03*
D10*
X83566000Y-107183000D03*
X86106000Y-107183000D03*
X88646000Y-107183000D03*
X91186000Y-107183000D03*
X93726000Y-107183000D03*
X96266000Y-107183000D03*
X98806000Y-107183000D03*
X98806000Y-99563000D03*
X96266000Y-99563000D03*
X93726000Y-99563000D03*
X91186000Y-99563000D03*
X88646000Y-99563000D03*
X86106000Y-99563000D03*
X83566000Y-99563000D03*
X81026000Y-99563000D03*
%TD*%
D12*
%TO.C,U17*%
X41407000Y-100076000D03*
D10*
X41407000Y-102616000D03*
X41407000Y-105156000D03*
X41407000Y-107696000D03*
X41407000Y-110236000D03*
X41407000Y-112776000D03*
X41407000Y-115316000D03*
X41407000Y-117856000D03*
X49027000Y-117856000D03*
X49027000Y-115316000D03*
X49027000Y-112776000D03*
X49027000Y-110236000D03*
X49027000Y-107696000D03*
X49027000Y-105156000D03*
X49027000Y-102616000D03*
X49027000Y-100076000D03*
%TD*%
D12*
%TO.C,U41*%
X111003000Y-134112000D03*
D10*
X111003000Y-136652000D03*
X111003000Y-139192000D03*
X111003000Y-141732000D03*
X111003000Y-144272000D03*
X111003000Y-146812000D03*
X111003000Y-149352000D03*
X118623000Y-149352000D03*
X118623000Y-146812000D03*
X118623000Y-144272000D03*
X118623000Y-141732000D03*
X118623000Y-139192000D03*
X118623000Y-136652000D03*
X118623000Y-134112000D03*
%TD*%
D12*
%TO.C,U49*%
X101092000Y-35814000D03*
D10*
X101092000Y-38354000D03*
X101092000Y-40894000D03*
X101092000Y-43434000D03*
X101092000Y-45974000D03*
X101092000Y-48514000D03*
X101092000Y-51054000D03*
X101092000Y-53594000D03*
X108712000Y-53594000D03*
X108712000Y-51054000D03*
X108712000Y-48514000D03*
X108712000Y-45974000D03*
X108712000Y-43434000D03*
X108712000Y-40894000D03*
X108712000Y-38354000D03*
X108712000Y-35814000D03*
%TD*%
%TO.C,R6*%
X94996000Y-137922000D03*
X94996000Y-130302000D03*
%TD*%
%TO.C,R8*%
X81040000Y-117348000D03*
X81040000Y-109728000D03*
%TD*%
D14*
%TO.C,J5*%
X107616000Y-100330000D03*
D13*
X107616000Y-102870000D03*
X107616000Y-105410000D03*
X107616000Y-107950000D03*
X107616000Y-110490000D03*
X107616000Y-113030000D03*
X107616000Y-115570000D03*
X107616000Y-118110000D03*
X107616000Y-120650000D03*
X107616000Y-123190000D03*
X107616000Y-125730000D03*
X107616000Y-128270000D03*
X107616000Y-130810000D03*
X107616000Y-133350000D03*
X107616000Y-135890000D03*
X107616000Y-138430000D03*
X107616000Y-140970000D03*
X107616000Y-143510000D03*
X107616000Y-146050000D03*
X107616000Y-148590000D03*
%TD*%
D12*
%TO.C,U50*%
X111003000Y-54864000D03*
D10*
X111003000Y-57404000D03*
X111003000Y-59944000D03*
X111003000Y-62484000D03*
X111003000Y-65024000D03*
X111003000Y-67564000D03*
X111003000Y-70104000D03*
X111003000Y-72644000D03*
X118623000Y-72644000D03*
X118623000Y-70104000D03*
X118623000Y-67564000D03*
X118623000Y-65024000D03*
X118623000Y-62484000D03*
X118623000Y-59944000D03*
X118623000Y-57404000D03*
X118623000Y-54864000D03*
%TD*%
D12*
%TO.C,U20*%
X51313000Y-100076000D03*
D10*
X51313000Y-102616000D03*
X51313000Y-105156000D03*
X51313000Y-107696000D03*
X51313000Y-110236000D03*
X51313000Y-112776000D03*
X51313000Y-115316000D03*
X51313000Y-117856000D03*
X58933000Y-117856000D03*
X58933000Y-115316000D03*
X58933000Y-112776000D03*
X58933000Y-110236000D03*
X58933000Y-107696000D03*
X58933000Y-105156000D03*
X58933000Y-102616000D03*
X58933000Y-100076000D03*
%TD*%
D12*
%TO.C,U51*%
X120904000Y-87884000D03*
D10*
X120904000Y-90424000D03*
X120904000Y-92964000D03*
X120904000Y-95504000D03*
X120904000Y-98044000D03*
X120904000Y-100584000D03*
X120904000Y-103124000D03*
X120904000Y-105664000D03*
X128524000Y-105664000D03*
X128524000Y-103124000D03*
X128524000Y-100584000D03*
X128524000Y-98044000D03*
X128524000Y-95504000D03*
X128524000Y-92964000D03*
X128524000Y-90424000D03*
X128524000Y-87884000D03*
%TD*%
%TO.C,R9*%
X84582000Y-117348000D03*
X84582000Y-109728000D03*
%TD*%
D18*
%TO.C,RV4 (B)*%
X123640000Y-33782000D03*
X121100000Y-36322000D03*
X123640000Y-38862000D03*
%TD*%
D12*
%TO.C,U53*%
X101092000Y-77724000D03*
D10*
X101092000Y-80264000D03*
X101092000Y-82804000D03*
X101092000Y-85344000D03*
X101092000Y-87884000D03*
X101092000Y-90424000D03*
X101092000Y-92964000D03*
X101092000Y-95504000D03*
X108712000Y-95504000D03*
X108712000Y-92964000D03*
X108712000Y-90424000D03*
X108712000Y-87884000D03*
X108712000Y-85344000D03*
X108712000Y-82804000D03*
X108712000Y-80264000D03*
X108712000Y-77724000D03*
%TD*%
D12*
%TO.C,U15*%
X21600000Y-100076000D03*
D10*
X21600000Y-102616000D03*
X21600000Y-105156000D03*
X21600000Y-107696000D03*
X21600000Y-110236000D03*
X21600000Y-112776000D03*
X21600000Y-115316000D03*
X21600000Y-117856000D03*
X29220000Y-117856000D03*
X29220000Y-115316000D03*
X29220000Y-112776000D03*
X29220000Y-110236000D03*
X29220000Y-107696000D03*
X29220000Y-105156000D03*
X29220000Y-102616000D03*
X29220000Y-100076000D03*
%TD*%
D12*
%TO.C,U21*%
X21595000Y-131572000D03*
D10*
X21595000Y-134112000D03*
X21595000Y-136652000D03*
X21595000Y-139192000D03*
X21595000Y-141732000D03*
X21595000Y-144272000D03*
X21595000Y-146812000D03*
X21595000Y-149352000D03*
X29215000Y-149352000D03*
X29215000Y-146812000D03*
X29215000Y-144272000D03*
X29215000Y-141732000D03*
X29215000Y-139192000D03*
X29215000Y-136652000D03*
X29215000Y-134112000D03*
X29215000Y-131572000D03*
%TD*%
D14*
%TO.C,J2*%
X72216000Y-100330000D03*
D13*
X72216000Y-102870000D03*
X72216000Y-105410000D03*
X72216000Y-107950000D03*
X72216000Y-110490000D03*
X72216000Y-113030000D03*
X72216000Y-115570000D03*
X72216000Y-118110000D03*
X72216000Y-120650000D03*
X72216000Y-123190000D03*
X72216000Y-125730000D03*
X72216000Y-128270000D03*
X72216000Y-130810000D03*
X72216000Y-133350000D03*
X72216000Y-135890000D03*
X72216000Y-138430000D03*
X72216000Y-140970000D03*
X72216000Y-143510000D03*
X72216000Y-146050000D03*
X72216000Y-148590000D03*
%TD*%
D12*
%TO.C,U26*%
X61214000Y-131572000D03*
D10*
X61214000Y-134112000D03*
X61214000Y-136652000D03*
X61214000Y-139192000D03*
X61214000Y-141732000D03*
X61214000Y-144272000D03*
X61214000Y-146812000D03*
X61214000Y-149352000D03*
X68834000Y-149352000D03*
X68834000Y-146812000D03*
X68834000Y-144272000D03*
X68834000Y-141732000D03*
X68834000Y-139192000D03*
X68834000Y-136652000D03*
X68834000Y-134112000D03*
X68834000Y-131572000D03*
%TD*%
D18*
%TO.C,RV1 (amp)*%
X126178000Y-19812000D03*
X123638000Y-22352000D03*
X126178000Y-24892000D03*
%TD*%
D10*
%TO.C,R4*%
X87884000Y-137922000D03*
X87884000Y-130302000D03*
%TD*%
D14*
%TO.C,J4*%
X77216000Y-100330000D03*
D13*
X77216000Y-102870000D03*
X77216000Y-105410000D03*
X77216000Y-107950000D03*
X77216000Y-110490000D03*
X77216000Y-113030000D03*
X77216000Y-115570000D03*
X77216000Y-118110000D03*
X77216000Y-120650000D03*
X77216000Y-123190000D03*
X77216000Y-125730000D03*
X77216000Y-128270000D03*
X77216000Y-130810000D03*
X77216000Y-133350000D03*
X77216000Y-135890000D03*
X77216000Y-138430000D03*
X77216000Y-140970000D03*
X77216000Y-143510000D03*
X77216000Y-146050000D03*
X77216000Y-148590000D03*
%TD*%
D12*
%TO.C,U30*%
X71374000Y-62484000D03*
D10*
X71374000Y-65024000D03*
X71374000Y-67564000D03*
X71374000Y-70104000D03*
X71374000Y-72644000D03*
X71374000Y-75184000D03*
X71374000Y-77724000D03*
X71374000Y-80264000D03*
X71374000Y-82804000D03*
X71374000Y-85344000D03*
X71374000Y-87884000D03*
X71374000Y-90424000D03*
X71374000Y-92964000D03*
X71374000Y-95504000D03*
X78994000Y-95504000D03*
X78994000Y-92964000D03*
X78994000Y-90424000D03*
X78994000Y-87884000D03*
X78994000Y-85344000D03*
X78994000Y-82804000D03*
X78994000Y-80264000D03*
X78994000Y-77724000D03*
X78994000Y-75184000D03*
X78994000Y-72644000D03*
X78994000Y-70104000D03*
X78994000Y-67564000D03*
X78994000Y-65024000D03*
X78994000Y-62484000D03*
%TD*%
D12*
%TO.C,U13*%
X61214000Y-58166000D03*
D10*
X61214000Y-60706000D03*
X61214000Y-63246000D03*
X61214000Y-65786000D03*
X61214000Y-68326000D03*
X61214000Y-70866000D03*
X61214000Y-73406000D03*
X61214000Y-75946000D03*
X68834000Y-75946000D03*
X68834000Y-73406000D03*
X68834000Y-70866000D03*
X68834000Y-68326000D03*
X68834000Y-65786000D03*
X68834000Y-63246000D03*
X68834000Y-60706000D03*
X68834000Y-58166000D03*
%TD*%
%TO.C,R14*%
X98806000Y-30226000D03*
X91186000Y-30226000D03*
%TD*%
D12*
%TO.C,U37*%
X111003000Y-33782000D03*
D10*
X111003000Y-36322000D03*
X111003000Y-38862000D03*
X111003000Y-41402000D03*
X111003000Y-43942000D03*
X111003000Y-46482000D03*
X111003000Y-49022000D03*
X111003000Y-51562000D03*
X118623000Y-51562000D03*
X118623000Y-49022000D03*
X118623000Y-46482000D03*
X118623000Y-43942000D03*
X118623000Y-41402000D03*
X118623000Y-38862000D03*
X118623000Y-36322000D03*
X118623000Y-33782000D03*
%TD*%
D12*
%TO.C,U7*%
X51308000Y-62484000D03*
D10*
X51308000Y-65024000D03*
X51308000Y-67564000D03*
X51308000Y-70104000D03*
X51308000Y-72644000D03*
X51308000Y-75184000D03*
X51308000Y-77724000D03*
X58928000Y-77724000D03*
X58928000Y-75184000D03*
X58928000Y-72644000D03*
X58928000Y-70104000D03*
X58928000Y-67564000D03*
X58928000Y-65024000D03*
X58928000Y-62484000D03*
%TD*%
D19*
%TO.C,H1*%
X21476000Y-22606000D03*
X22178944Y-20908944D03*
X22178944Y-24303056D03*
X23876000Y-20206000D03*
D20*
X23876000Y-22606000D03*
D19*
X23876000Y-25006000D03*
X25573056Y-20908944D03*
X25573056Y-24303056D03*
X26276000Y-22606000D03*
%TD*%
D11*
%TO.C,U36*%
X112776000Y-27422000D03*
D10*
X115316000Y-27422000D03*
X117856000Y-27422000D03*
X120396000Y-27422000D03*
X120396000Y-19802000D03*
X117856000Y-19802000D03*
X115316000Y-19802000D03*
X112776000Y-19802000D03*
%TD*%
%TO.C,R3*%
X84328000Y-137922000D03*
X84328000Y-130302000D03*
%TD*%
D12*
%TO.C,U8*%
X21595000Y-81280000D03*
D10*
X21595000Y-83820000D03*
X21595000Y-86360000D03*
X21595000Y-88900000D03*
X21595000Y-91440000D03*
X21595000Y-93980000D03*
X21595000Y-96520000D03*
X29215000Y-96520000D03*
X29215000Y-93980000D03*
X29215000Y-91440000D03*
X29215000Y-88900000D03*
X29215000Y-86360000D03*
X29215000Y-83820000D03*
X29215000Y-81280000D03*
%TD*%
D12*
%TO.C,U22*%
X31501000Y-131572000D03*
D10*
X31501000Y-134112000D03*
X31501000Y-136652000D03*
X31501000Y-139192000D03*
X31501000Y-141732000D03*
X31501000Y-144272000D03*
X31501000Y-146812000D03*
X31501000Y-149352000D03*
X39121000Y-149352000D03*
X39121000Y-146812000D03*
X39121000Y-144272000D03*
X39121000Y-141732000D03*
X39121000Y-139192000D03*
X39121000Y-136652000D03*
X39121000Y-134112000D03*
X39121000Y-131572000D03*
%TD*%
D11*
%TO.C,U35*%
X91694000Y-27427000D03*
D10*
X94234000Y-27427000D03*
X96774000Y-27427000D03*
X99314000Y-27427000D03*
X101854000Y-27427000D03*
X104394000Y-27427000D03*
X106934000Y-27427000D03*
X109474000Y-27427000D03*
X109474000Y-19807000D03*
X106934000Y-19807000D03*
X104394000Y-19807000D03*
X101854000Y-19807000D03*
X99314000Y-19807000D03*
X96774000Y-19807000D03*
X94234000Y-19807000D03*
X91694000Y-19807000D03*
%TD*%
%TO.C,R1*%
X46228000Y-28702000D03*
X46228000Y-36322000D03*
%TD*%
D19*
%TO.C,H3*%
X21476000Y-124606000D03*
X22178944Y-122908944D03*
X22178944Y-126303056D03*
X23876000Y-122206000D03*
D20*
X23876000Y-124606000D03*
D19*
X23876000Y-127006000D03*
X25573056Y-122908944D03*
X25573056Y-126303056D03*
X26276000Y-124606000D03*
%TD*%
D10*
%TO.C,R7*%
X98552000Y-137922000D03*
X98552000Y-130302000D03*
%TD*%
M02*
