%TF.GenerationSoftware,KiCad,Pcbnew,9.0.6*%
%TF.CreationDate,2025-12-26T02:04:48+08:00*%
%TF.ProjectId,vga_video_card,7667615f-7669-4646-956f-5f636172642e,rev?*%
%TF.SameCoordinates,Original*%
%TF.FileFunction,Profile,NP*%
%FSLAX46Y46*%
G04 Gerber Fmt 4.6, Leading zero omitted, Abs format (unit mm)*
G04 Created by KiCad (PCBNEW 9.0.6) date 2025-12-26 02:04:48*
%MOMM*%
%LPD*%
G01*
G04 APERTURE LIST*
%ADD10C,0.150000*%
%TA.AperFunction,Profile*%
%ADD11C,0.050000*%
%TD*%
G04 APERTURE END LIST*
D10*
X78209333Y-15052819D02*
X77637905Y-15052819D01*
X77923619Y-15052819D02*
X77923619Y-14052819D01*
X77923619Y-14052819D02*
X77828381Y-14195676D01*
X77828381Y-14195676D02*
X77733143Y-14290914D01*
X77733143Y-14290914D02*
X77637905Y-14338533D01*
X79161714Y-15052819D02*
X78590286Y-15052819D01*
X78876000Y-15052819D02*
X78876000Y-14052819D01*
X78876000Y-14052819D02*
X78780762Y-14195676D01*
X78780762Y-14195676D02*
X78685524Y-14290914D01*
X78685524Y-14290914D02*
X78590286Y-14338533D01*
X79780762Y-14052819D02*
X79876000Y-14052819D01*
X79876000Y-14052819D02*
X79971238Y-14100438D01*
X79971238Y-14100438D02*
X80018857Y-14148057D01*
X80018857Y-14148057D02*
X80066476Y-14243295D01*
X80066476Y-14243295D02*
X80114095Y-14433771D01*
X80114095Y-14433771D02*
X80114095Y-14671866D01*
X80114095Y-14671866D02*
X80066476Y-14862342D01*
X80066476Y-14862342D02*
X80018857Y-14957580D01*
X80018857Y-14957580D02*
X79971238Y-15005200D01*
X79971238Y-15005200D02*
X79876000Y-15052819D01*
X79876000Y-15052819D02*
X79780762Y-15052819D01*
X79780762Y-15052819D02*
X79685524Y-15005200D01*
X79685524Y-15005200D02*
X79637905Y-14957580D01*
X79637905Y-14957580D02*
X79590286Y-14862342D01*
X79590286Y-14862342D02*
X79542667Y-14671866D01*
X79542667Y-14671866D02*
X79542667Y-14433771D01*
X79542667Y-14433771D02*
X79590286Y-14243295D01*
X79590286Y-14243295D02*
X79637905Y-14148057D01*
X79637905Y-14148057D02*
X79685524Y-14100438D01*
X79685524Y-14100438D02*
X79780762Y-14052819D01*
D11*
X23876000Y-22106000D02*
X23876000Y-15161580D01*
X133876000Y-15161580D02*
X133876000Y-22106000D01*
X23876000Y-15748000D02*
X133876000Y-15748000D01*
X23876000Y-15748000D02*
X25002504Y-15161579D01*
X23876000Y-15748000D02*
X25002504Y-16334421D01*
X133876000Y-15748000D02*
X132749496Y-16334421D01*
X133876000Y-15748000D02*
X132749496Y-15161579D01*
X17290800Y-14986000D02*
X143290800Y-14986000D01*
X143290800Y-154986000D01*
X17290800Y-154986000D01*
X17290800Y-14986000D01*
M02*
