%TF.GenerationSoftware,KiCad,Pcbnew,9.0.6*%
%TF.CreationDate,2025-12-26T02:04:44+08:00*%
%TF.ProjectId,vga_video_card,7667615f-7669-4646-956f-5f636172642e,rev?*%
%TF.SameCoordinates,Original*%
%TF.FileFunction,Drillmap*%
%TF.FilePolarity,Positive*%
%FSLAX45Y45*%
G04 Gerber Fmt 4.5, Leading zero omitted, Abs format (unit mm)*
G04 Created by KiCad (PCBNEW 9.0.6) date 2025-12-26 02:04:44*
%MOMM*%
%LPD*%
G01*
G04 APERTURE LIST*
%ADD10C,0.050000*%
%ADD11C,0.200000*%
G04 APERTURE END LIST*
D10*
X1729080Y-1498600D02*
X14329080Y-1498600D01*
X14329080Y-15498600D01*
X1729080Y-15498600D01*
X1729080Y-1498600D01*
D11*
X1987357Y-15812584D02*
X1987357Y-15612584D01*
X1987357Y-15612584D02*
X2034976Y-15612584D01*
X2034976Y-15612584D02*
X2063547Y-15622108D01*
X2063547Y-15622108D02*
X2082595Y-15641155D01*
X2082595Y-15641155D02*
X2092119Y-15660203D01*
X2092119Y-15660203D02*
X2101643Y-15698298D01*
X2101643Y-15698298D02*
X2101643Y-15726869D01*
X2101643Y-15726869D02*
X2092119Y-15764965D01*
X2092119Y-15764965D02*
X2082595Y-15784012D01*
X2082595Y-15784012D02*
X2063547Y-15803060D01*
X2063547Y-15803060D02*
X2034976Y-15812584D01*
X2034976Y-15812584D02*
X1987357Y-15812584D01*
X2187357Y-15812584D02*
X2187357Y-15679250D01*
X2187357Y-15717346D02*
X2196881Y-15698298D01*
X2196881Y-15698298D02*
X2206404Y-15688774D01*
X2206404Y-15688774D02*
X2225452Y-15679250D01*
X2225452Y-15679250D02*
X2244500Y-15679250D01*
X2311166Y-15812584D02*
X2311166Y-15679250D01*
X2311166Y-15612584D02*
X2301643Y-15622108D01*
X2301643Y-15622108D02*
X2311166Y-15631631D01*
X2311166Y-15631631D02*
X2320690Y-15622108D01*
X2320690Y-15622108D02*
X2311166Y-15612584D01*
X2311166Y-15612584D02*
X2311166Y-15631631D01*
X2434976Y-15812584D02*
X2415928Y-15803060D01*
X2415928Y-15803060D02*
X2406404Y-15784012D01*
X2406404Y-15784012D02*
X2406404Y-15612584D01*
X2539738Y-15812584D02*
X2520690Y-15803060D01*
X2520690Y-15803060D02*
X2511166Y-15784012D01*
X2511166Y-15784012D02*
X2511166Y-15612584D01*
X2768309Y-15812584D02*
X2768309Y-15612584D01*
X2768309Y-15612584D02*
X2834976Y-15755441D01*
X2834976Y-15755441D02*
X2901642Y-15612584D01*
X2901642Y-15612584D02*
X2901642Y-15812584D01*
X3082595Y-15812584D02*
X3082595Y-15707822D01*
X3082595Y-15707822D02*
X3073071Y-15688774D01*
X3073071Y-15688774D02*
X3054023Y-15679250D01*
X3054023Y-15679250D02*
X3015928Y-15679250D01*
X3015928Y-15679250D02*
X2996881Y-15688774D01*
X3082595Y-15803060D02*
X3063547Y-15812584D01*
X3063547Y-15812584D02*
X3015928Y-15812584D01*
X3015928Y-15812584D02*
X2996881Y-15803060D01*
X2996881Y-15803060D02*
X2987357Y-15784012D01*
X2987357Y-15784012D02*
X2987357Y-15764965D01*
X2987357Y-15764965D02*
X2996881Y-15745917D01*
X2996881Y-15745917D02*
X3015928Y-15736393D01*
X3015928Y-15736393D02*
X3063547Y-15736393D01*
X3063547Y-15736393D02*
X3082595Y-15726869D01*
X3177833Y-15679250D02*
X3177833Y-15879250D01*
X3177833Y-15688774D02*
X3196881Y-15679250D01*
X3196881Y-15679250D02*
X3234976Y-15679250D01*
X3234976Y-15679250D02*
X3254023Y-15688774D01*
X3254023Y-15688774D02*
X3263547Y-15698298D01*
X3263547Y-15698298D02*
X3273071Y-15717346D01*
X3273071Y-15717346D02*
X3273071Y-15774488D01*
X3273071Y-15774488D02*
X3263547Y-15793536D01*
X3263547Y-15793536D02*
X3254023Y-15803060D01*
X3254023Y-15803060D02*
X3234976Y-15812584D01*
X3234976Y-15812584D02*
X3196881Y-15812584D01*
X3196881Y-15812584D02*
X3177833Y-15803060D01*
X3358785Y-15793536D02*
X3368309Y-15803060D01*
X3368309Y-15803060D02*
X3358785Y-15812584D01*
X3358785Y-15812584D02*
X3349262Y-15803060D01*
X3349262Y-15803060D02*
X3358785Y-15793536D01*
X3358785Y-15793536D02*
X3358785Y-15812584D01*
X3358785Y-15688774D02*
X3368309Y-15698298D01*
X3368309Y-15698298D02*
X3358785Y-15707822D01*
X3358785Y-15707822D02*
X3349262Y-15698298D01*
X3349262Y-15698298D02*
X3358785Y-15688774D01*
X3358785Y-15688774D02*
X3358785Y-15707822D01*
M02*
