M48
; DRILL file {KiCad 9.0.6} date 2025-12-26T02:04:44+0800
; FORMAT={-:-/ absolute / metric / decimal}
; #@! TF.CreationDate,2025-12-26T02:04:44+08:00
; #@! TF.GenerationSoftware,Kicad,Pcbnew,9.0.6
; #@! TF.FileFunction,Plated,1,4,PTH
FMAT,2
METRIC
; #@! TA.AperFunction,Plated,PTH,ViaDrill
T1C0.300
; #@! TA.AperFunction,Plated,PTH,ComponentDrill
T2C0.500
; #@! TA.AperFunction,Plated,PTH,ComponentDrill
T3C0.800
; #@! TA.AperFunction,Plated,PTH,ComponentDrill
T4C0.900
; #@! TA.AperFunction,Plated,PTH,ComponentDrill
T5C1.000
; #@! TA.AperFunction,Plated,PTH,ComponentDrill
T6C1.100
; #@! TA.AperFunction,Plated,PTH,ComponentDrill
T7C3.200
%
G90
G05
T1
X27.406Y-19.498
X27.725Y-60.791
X27.896Y-67.336
X32.441Y-71.01
X33.037Y-87.92
X34.328Y-130.398
X37.719Y-66.085
X38.222Y-55.407
X41.013Y-97.87
X42.386Y-135.094
X42.489Y-82.359
X42.733Y-70.269
X42.859Y-106.972
X43.86Y-123.345
X44.354Y-124.276
X44.447Y-28.507
X46.542Y-18.848
X46.897Y-125.914
X46.912Y-67.909
X46.997Y-111.094
X47.364Y-96.272
X47.664Y-101.453
X47.94Y-76.102
X48.346Y-127.268
X49.53Y-120.904
X49.737Y-132.842
X49.806Y-74.025
X51.963Y-121.963
X52.099Y-50.197
X53.496Y-112.511
X54.037Y-113.128
X54.921Y-58.139
X55.134Y-101.16
X56.926Y-22.472
X57.442Y-115.317
X57.928Y-80.28
X60.563Y-77.852
X61.637Y-123.352
X62.088Y-82.863
X62.705Y-41.928
X63.033Y-144.588
X63.035Y-147.224
X63.15Y-117.798
X63.196Y-148.778
X63.23Y-151.006
X63.378Y-102.577
X63.45Y-115.324
X63.535Y-77.755
X64.073Y-147.837
X64.134Y-46.206
X64.77Y-111.083
X65.287Y-70.76
X65.595Y-136.438
X66.083Y-73.113
X66.149Y-61.017
X66.171Y-70.67
X66.253Y-66.369
X66.606Y-133.212
X66.607Y-74.12
X66.636Y-111.658
X66.738Y-97.289
X66.748Y-108.144
X66.825Y-112.435
X66.85Y-64.27
X66.885Y-67.915
X67.159Y-136.218
X67.509Y-137.729
X67.512Y-115.865
X67.554Y-102.874
X68.37Y-30.661
X68.971Y-26.959
X69.472Y-61.976
X69.87Y-71.997
X69.927Y-69.674
X72.99Y-29.585
X73.136Y-35.205
X73.393Y-95.643
X73.623Y-86.126
X73.74Y-82.286
X73.959Y-78.87
X74.126Y-94.342
X74.469Y-55.492
X74.812Y-127.0
X74.812Y-147.882
X74.846Y-49.444
X75.42Y-46.683
X75.712Y-39.592
X76.948Y-52.761
X77.334Y-61.042
X77.475Y-71.571
X78.548Y-124.46
X78.643Y-17.219
X78.966Y-112.683
X79.698Y-60.815
X80.014Y-74.032
X80.919Y-115.023
X81.997Y-94.41
X83.032Y-53.151
X83.048Y-67.706
X83.084Y-82.9
X83.26Y-91.536
X83.384Y-40.123
X83.436Y-88.849
X83.528Y-93.555
X83.538Y-69.423
X83.631Y-57.56
X83.642Y-76.065
X83.734Y-47.807
X83.877Y-92.675
X83.951Y-30.932
X84.402Y-67.98
X84.716Y-62.765
X84.779Y-63.579
X84.792Y-90.759
X84.888Y-48.206
X85.014Y-102.239
X85.388Y-96.187
X85.618Y-105.653
X85.626Y-96.994
X85.669Y-103.399
X85.825Y-82.309
X85.987Y-83.463
X86.325Y-88.144
X86.371Y-102.411
X86.456Y-73.977
X86.698Y-82.364
X86.895Y-45.962
X86.986Y-60.588
X87.04Y-67.691
X87.115Y-70.109
X87.228Y-35.205
X87.944Y-91.5
X89.427Y-61.042
X89.867Y-40.339
X90.403Y-89.347
X90.714Y-32.485
X92.622Y-94.957
X92.637Y-31.862
X92.745Y-92.027
X92.914Y-90.84
X93.087Y-45.972
X93.087Y-75.479
X93.289Y-84.456
X93.308Y-43.131
X93.32Y-64.516
X93.334Y-146.742
X93.399Y-50.252
X93.408Y-88.963
X93.412Y-121.13
X93.449Y-96.827
X93.776Y-79.178
X94.525Y-97.871
X94.831Y-94.075
X94.845Y-70.325
X94.936Y-89.804
X95.363Y-96.433
X95.713Y-29.295
X95.981Y-69.549
X96.037Y-103.364
X96.168Y-139.227
X96.29Y-86.14
X96.293Y-84.269
X96.404Y-129.12
X96.839Y-55.103
X97.4Y-51.777
X97.404Y-98.39
X97.67Y-31.211
X97.764Y-52.689
X97.764Y-100.829
X97.823Y-84.292
X98.66Y-17.219
X98.827Y-113.582
X100.023Y-89.543
X100.418Y-113.031
X100.555Y-76.042
X100.614Y-102.805
X100.884Y-109.608
X100.964Y-111.13
X101.107Y-139.628
X101.173Y-104.501
X101.602Y-114.69
X102.407Y-31.871
X102.482Y-33.223
X102.535Y-78.279
X102.542Y-60.492
X102.552Y-77.304
X102.711Y-58.804
X102.747Y-87.573
X102.76Y-80.465
X103.416Y-94.992
X104.012Y-53.579
X104.49Y-32.608
X104.76Y-111.194
X104.778Y-125.99
X104.789Y-136.716
X104.82Y-90.985
X104.906Y-43.392
X104.947Y-119.934
X105.266Y-118.618
X105.398Y-123.782
X105.781Y-65.163
X105.806Y-56.337
X105.821Y-90.011
X105.938Y-34.552
X105.998Y-53.116
X106.217Y-124.4
X106.218Y-43.345
X106.352Y-66.623
X106.426Y-69.706
X106.549Y-80.477
X106.811Y-90.75
X106.983Y-52.111
X107.043Y-78.356
X107.188Y-36.271
X107.256Y-66.535
X107.341Y-61.37
X107.373Y-68.164
X107.443Y-98.405
X107.674Y-40.116
X108.532Y-114.187
X109.244Y-100.66
X109.508Y-98.604
X110.361Y-24.953
X110.932Y-24.408
X111.466Y-27.697
X111.91Y-37.323
X112.054Y-92.482
X112.22Y-144.9
X112.283Y-60.469
X112.316Y-67.868
X112.477Y-103.695
X112.522Y-36.17
X112.665Y-119.38
X112.739Y-76.839
X112.763Y-32.715
X112.77Y-101.451
X112.816Y-129.482
X112.866Y-28.941
X113.45Y-147.767
X113.8Y-95.562
X113.938Y-41.503
X113.965Y-43.989
X113.986Y-112.253
X114.061Y-36.236
X114.09Y-94.126
X114.379Y-52.661
X114.598Y-34.541
X114.65Y-143.158
X115.367Y-90.305
X115.45Y-64.42
X115.534Y-69.323
X115.544Y-48.873
X115.721Y-50.041
X115.781Y-83.113
X115.781Y-87.649
X116.078Y-118.11
X116.117Y-73.333
X116.243Y-121.036
X116.316Y-41.109
X116.383Y-109.169
X116.383Y-110.388
X116.42Y-77.047
X116.458Y-115.354
X116.546Y-15.852
X116.702Y-68.941
X116.749Y-70.353
X117.108Y-122.28
X117.319Y-106.132
X117.798Y-95.035
X117.814Y-74.856
X119.173Y-21.678
X119.614Y-87.257
X119.629Y-84.422
X119.942Y-70.248
X120.291Y-47.004
X121.416Y-64.224
X121.502Y-106.924
X121.81Y-72.978
X122.508Y-17.159
X122.566Y-71.62
X122.939Y-65.612
X123.24Y-78.148
X123.273Y-136.664
X123.552Y-81.119
X123.552Y-86.795
X123.564Y-85.745
X123.581Y-96.517
X124.223Y-64.746
X124.284Y-124.728
X124.761Y-133.088
X125.123Y-84.253
X125.178Y-36.395
X125.489Y-151.447
X125.719Y-119.289
X125.979Y-111.149
X126.15Y-131.711
X126.274Y-112.084
X126.418Y-103.653
X126.63Y-81.736
X126.797Y-76.251
X126.81Y-104.47
X127.137Y-77.368
X127.256Y-80.73
X127.613Y-45.19
X127.937Y-54.382
X128.47Y-22.596
X129.418Y-99.422
X129.596Y-125.028
X129.659Y-131.28
X129.801Y-104.47
X130.096Y-96.861
X130.709Y-94.713
X130.89Y-69.727
X130.946Y-92.477
X131.021Y-102.597
X131.028Y-127.924
X131.435Y-99.787
X131.759Y-86.03
X133.513Y-66.247
X133.858Y-57.121
X135.258Y-53.922
X135.594Y-95.099
X136.313Y-139.214
X136.341Y-58.204
X136.712Y-56.08
X136.766Y-107.914
X136.766Y-112.086
X136.954Y-113.87
X137.367Y-116.242
X137.413Y-138.934
X137.92Y-121.069
X138.028Y-56.29
X138.084Y-67.341
X138.379Y-94.188
X138.456Y-136.594
X138.667Y-97.171
X139.373Y-106.12
X139.377Y-43.477
X139.688Y-115.07
X140.338Y-24.06
X140.338Y-147.882
X140.588Y-76.291
X141.14Y-147.053
T2
X21.476Y-22.606
X21.476Y-124.606
X22.179Y-20.909
X22.179Y-24.303
X22.179Y-122.909
X22.179Y-126.303
X23.876Y-20.206
X23.876Y-25.006
X23.876Y-122.206
X23.876Y-127.006
X25.573Y-20.909
X25.573Y-24.303
X25.573Y-122.909
X25.573Y-126.303
X26.276Y-22.606
X26.276Y-124.606
X131.476Y-22.606
X131.476Y-145.606
X132.179Y-20.909
X132.179Y-24.303
X132.179Y-143.909
X132.179Y-147.303
X133.876Y-20.206
X133.876Y-25.006
X133.876Y-143.206
X133.876Y-148.006
X135.573Y-20.909
X135.573Y-24.303
X135.573Y-143.909
X135.573Y-147.303
X136.276Y-22.606
X136.276Y-145.606
T3
X21.59Y-41.148
X21.59Y-43.688
X21.59Y-46.228
X21.59Y-48.768
X21.59Y-51.308
X21.59Y-53.848
X21.59Y-56.388
X21.59Y-58.928
X21.59Y-62.484
X21.59Y-65.024
X21.59Y-67.564
X21.59Y-70.104
X21.59Y-72.644
X21.59Y-75.184
X21.59Y-77.724
X21.595Y-81.28
X21.595Y-83.82
X21.595Y-86.36
X21.595Y-88.9
X21.595Y-91.44
X21.595Y-93.98
X21.595Y-96.52
X21.595Y-131.572
X21.595Y-134.112
X21.595Y-136.652
X21.595Y-139.192
X21.595Y-141.732
X21.595Y-144.272
X21.595Y-146.812
X21.595Y-149.352
X21.6Y-100.076
X21.6Y-102.616
X21.6Y-105.156
X21.6Y-107.696
X21.6Y-110.236
X21.6Y-112.776
X21.6Y-115.316
X21.6Y-117.856
X29.21Y-41.148
X29.21Y-43.688
X29.21Y-46.228
X29.21Y-48.768
X29.21Y-51.308
X29.21Y-53.848
X29.21Y-56.388
X29.21Y-58.928
X29.21Y-62.484
X29.21Y-65.024
X29.21Y-67.564
X29.21Y-70.104
X29.21Y-72.644
X29.21Y-75.184
X29.21Y-77.724
X29.215Y-81.28
X29.215Y-83.82
X29.215Y-86.36
X29.215Y-88.9
X29.215Y-91.44
X29.215Y-93.98
X29.215Y-96.52
X29.215Y-131.572
X29.215Y-134.112
X29.215Y-136.652
X29.215Y-139.192
X29.215Y-141.732
X29.215Y-144.272
X29.215Y-146.812
X29.215Y-149.352
X29.22Y-100.076
X29.22Y-102.616
X29.22Y-105.156
X29.22Y-107.696
X29.22Y-110.236
X29.22Y-112.776
X29.22Y-115.316
X29.22Y-117.856
X31.496Y-41.148
X31.496Y-43.688
X31.496Y-46.228
X31.496Y-48.768
X31.496Y-51.308
X31.496Y-53.848
X31.496Y-56.388
X31.496Y-58.928
X31.496Y-62.484
X31.496Y-65.024
X31.496Y-67.564
X31.496Y-70.104
X31.496Y-72.644
X31.496Y-75.184
X31.496Y-77.724
X31.501Y-81.28
X31.501Y-83.82
X31.501Y-86.36
X31.501Y-88.9
X31.501Y-91.44
X31.501Y-93.98
X31.501Y-96.52
X31.501Y-100.076
X31.501Y-102.616
X31.501Y-105.156
X31.501Y-107.696
X31.501Y-110.236
X31.501Y-112.776
X31.501Y-115.316
X31.501Y-117.856
X31.501Y-131.572
X31.501Y-134.112
X31.501Y-136.652
X31.501Y-139.192
X31.501Y-141.732
X31.501Y-144.272
X31.501Y-146.812
X31.501Y-149.352
X32.004Y-120.899
X32.004Y-128.519
X34.544Y-120.899
X34.544Y-128.519
X37.084Y-120.899
X37.084Y-128.519
X39.116Y-41.148
X39.116Y-43.688
X39.116Y-46.228
X39.116Y-48.768
X39.116Y-51.308
X39.116Y-53.848
X39.116Y-56.388
X39.116Y-58.928
X39.116Y-62.484
X39.116Y-65.024
X39.116Y-67.564
X39.116Y-70.104
X39.116Y-72.644
X39.116Y-75.184
X39.116Y-77.724
X39.121Y-81.28
X39.121Y-83.82
X39.121Y-86.36
X39.121Y-88.9
X39.121Y-91.44
X39.121Y-93.98
X39.121Y-96.52
X39.121Y-100.076
X39.121Y-102.616
X39.121Y-105.156
X39.121Y-107.696
X39.121Y-110.236
X39.121Y-112.776
X39.121Y-115.316
X39.121Y-117.856
X39.121Y-131.572
X39.121Y-134.112
X39.121Y-136.652
X39.121Y-139.192
X39.121Y-141.732
X39.121Y-144.272
X39.121Y-146.812
X39.121Y-149.352
X39.624Y-120.899
X39.624Y-128.519
X41.402Y-41.148
X41.402Y-43.688
X41.402Y-46.228
X41.402Y-48.768
X41.402Y-51.308
X41.402Y-53.848
X41.402Y-56.388
X41.402Y-58.928
X41.402Y-62.484
X41.402Y-65.024
X41.402Y-67.564
X41.402Y-70.104
X41.402Y-72.644
X41.402Y-75.184
X41.402Y-77.724
X41.407Y-81.28
X41.407Y-83.82
X41.407Y-86.36
X41.407Y-88.9
X41.407Y-91.44
X41.407Y-93.98
X41.407Y-96.52
X41.407Y-100.076
X41.407Y-102.616
X41.407Y-105.156
X41.407Y-107.696
X41.407Y-110.236
X41.407Y-112.776
X41.407Y-115.316
X41.407Y-117.856
X41.407Y-131.572
X41.407Y-134.112
X41.407Y-136.652
X41.407Y-139.192
X41.407Y-141.732
X41.407Y-144.272
X41.407Y-146.812
X41.407Y-149.352
X42.164Y-120.899
X42.164Y-128.519
X44.704Y-120.899
X44.704Y-128.519
X46.228Y-28.702
X46.228Y-36.322
X47.244Y-120.899
X47.244Y-128.519
X49.022Y-41.148
X49.022Y-43.688
X49.022Y-46.228
X49.022Y-48.768
X49.022Y-51.308
X49.022Y-53.848
X49.022Y-56.388
X49.022Y-58.928
X49.022Y-62.484
X49.022Y-65.024
X49.022Y-67.564
X49.022Y-70.104
X49.022Y-72.644
X49.022Y-75.184
X49.022Y-77.724
X49.027Y-81.28
X49.027Y-83.82
X49.027Y-86.36
X49.027Y-88.9
X49.027Y-91.44
X49.027Y-93.98
X49.027Y-96.52
X49.027Y-100.076
X49.027Y-102.616
X49.027Y-105.156
X49.027Y-107.696
X49.027Y-110.236
X49.027Y-112.776
X49.027Y-115.316
X49.027Y-117.856
X49.027Y-131.572
X49.027Y-134.112
X49.027Y-136.652
X49.027Y-139.192
X49.027Y-141.732
X49.027Y-144.272
X49.027Y-146.812
X49.027Y-149.352
X51.308Y-41.148
X51.308Y-43.688
X51.308Y-46.228
X51.308Y-48.768
X51.308Y-51.308
X51.308Y-53.848
X51.308Y-56.388
X51.308Y-58.928
X51.308Y-62.484
X51.308Y-65.024
X51.308Y-67.564
X51.308Y-70.104
X51.308Y-72.644
X51.308Y-75.184
X51.308Y-77.724
X51.308Y-81.28
X51.308Y-83.82
X51.308Y-86.36
X51.308Y-88.9
X51.308Y-91.44
X51.308Y-93.98
X51.308Y-96.52
X51.313Y-100.076
X51.313Y-102.616
X51.313Y-105.156
X51.313Y-107.696
X51.313Y-110.236
X51.313Y-112.776
X51.313Y-115.316
X51.313Y-117.856
X51.313Y-131.572
X51.313Y-134.112
X51.313Y-136.652
X51.313Y-139.192
X51.313Y-141.732
X51.313Y-144.272
X51.313Y-146.812
X51.313Y-149.352
X51.562Y-27.178
X51.562Y-34.798
X53.086Y-120.899
X53.086Y-128.519
X55.626Y-120.899
X55.626Y-128.519
X58.166Y-120.899
X58.166Y-128.519
X58.928Y-41.148
X58.928Y-43.688
X58.928Y-46.228
X58.928Y-48.768
X58.928Y-51.308
X58.928Y-53.848
X58.928Y-56.388
X58.928Y-58.928
X58.928Y-62.484
X58.928Y-65.024
X58.928Y-67.564
X58.928Y-70.104
X58.928Y-72.644
X58.928Y-75.184
X58.928Y-77.724
X58.928Y-81.28
X58.928Y-83.82
X58.928Y-86.36
X58.928Y-88.9
X58.928Y-91.44
X58.928Y-93.98
X58.928Y-96.52
X58.933Y-100.076
X58.933Y-102.616
X58.933Y-105.156
X58.933Y-107.696
X58.933Y-110.236
X58.933Y-112.776
X58.933Y-115.316
X58.933Y-117.856
X58.933Y-131.572
X58.933Y-134.112
X58.933Y-136.652
X58.933Y-139.192
X58.933Y-141.732
X58.933Y-144.272
X58.933Y-146.812
X58.933Y-149.352
X60.706Y-120.899
X60.706Y-128.519
X61.214Y-39.624
X61.214Y-42.164
X61.214Y-44.704
X61.214Y-47.244
X61.214Y-49.784
X61.214Y-52.324
X61.214Y-54.864
X61.214Y-58.166
X61.214Y-60.706
X61.214Y-63.246
X61.214Y-65.786
X61.214Y-68.326
X61.214Y-70.866
X61.214Y-73.406
X61.214Y-75.946
X61.214Y-79.248
X61.214Y-81.788
X61.214Y-84.328
X61.214Y-86.868
X61.214Y-89.408
X61.214Y-91.948
X61.214Y-94.488
X61.214Y-97.028
X61.214Y-100.33
X61.214Y-102.87
X61.214Y-105.41
X61.214Y-107.95
X61.214Y-110.49
X61.214Y-113.03
X61.214Y-115.57
X61.214Y-118.11
X61.214Y-131.572
X61.214Y-134.112
X61.214Y-136.652
X61.214Y-139.192
X61.214Y-141.732
X61.214Y-144.272
X61.214Y-146.812
X61.214Y-149.352
X63.246Y-120.899
X63.246Y-128.519
X65.786Y-120.899
X65.786Y-128.519
X66.802Y-27.178
X66.802Y-34.798
X68.326Y-120.899
X68.326Y-128.519
X68.834Y-39.624
X68.834Y-42.164
X68.834Y-44.704
X68.834Y-47.244
X68.834Y-49.784
X68.834Y-52.324
X68.834Y-54.864
X68.834Y-58.166
X68.834Y-60.706
X68.834Y-63.246
X68.834Y-65.786
X68.834Y-68.326
X68.834Y-70.866
X68.834Y-73.406
X68.834Y-75.946
X68.834Y-79.248
X68.834Y-81.788
X68.834Y-84.328
X68.834Y-86.868
X68.834Y-89.408
X68.834Y-91.948
X68.834Y-94.488
X68.834Y-97.028
X68.834Y-100.33
X68.834Y-102.87
X68.834Y-105.41
X68.834Y-107.95
X68.834Y-110.49
X68.834Y-113.03
X68.834Y-115.57
X68.834Y-118.11
X68.834Y-131.572
X68.834Y-134.112
X68.834Y-136.652
X68.834Y-139.192
X68.834Y-141.732
X68.834Y-144.272
X68.834Y-146.812
X68.834Y-149.352
X71.374Y-20.32
X71.374Y-22.86
X71.374Y-25.4
X71.374Y-27.94
X71.374Y-30.48
X71.374Y-33.02
X71.374Y-35.56
X71.374Y-38.1
X71.374Y-41.402
X71.374Y-43.942
X71.374Y-46.482
X71.374Y-49.022
X71.374Y-51.562
X71.374Y-54.102
X71.374Y-56.642
X71.374Y-59.182
X71.374Y-62.484
X71.374Y-65.024
X71.374Y-67.564
X71.374Y-70.104
X71.374Y-72.644
X71.374Y-75.184
X71.374Y-77.724
X71.374Y-80.264
X71.374Y-82.804
X71.374Y-85.344
X71.374Y-87.884
X71.374Y-90.424
X71.374Y-92.964
X71.374Y-95.504
X78.994Y-20.32
X78.994Y-22.86
X78.994Y-25.4
X78.994Y-27.94
X78.994Y-30.48
X78.994Y-33.02
X78.994Y-35.56
X78.994Y-38.1
X78.994Y-41.402
X78.994Y-43.942
X78.994Y-46.482
X78.994Y-49.022
X78.994Y-51.562
X78.994Y-54.102
X78.994Y-56.642
X78.994Y-59.182
X78.994Y-62.484
X78.994Y-65.024
X78.994Y-67.564
X78.994Y-70.104
X78.994Y-72.644
X78.994Y-75.184
X78.994Y-77.724
X78.994Y-80.264
X78.994Y-82.804
X78.994Y-85.344
X78.994Y-87.884
X78.994Y-90.424
X78.994Y-92.964
X78.994Y-95.504
X80.772Y-119.776
X80.772Y-127.396
X80.772Y-130.302
X80.772Y-137.922
X80.772Y-141.219
X80.772Y-148.839
X81.026Y-99.563
X81.026Y-107.183
X81.04Y-109.728
X81.04Y-117.348
X81.28Y-20.32
X81.28Y-22.86
X81.28Y-25.4
X81.28Y-27.94
X81.28Y-30.48
X81.28Y-33.02
X81.28Y-35.56
X81.28Y-38.1
X81.28Y-41.402
X81.28Y-43.942
X81.28Y-46.482
X81.28Y-49.022
X81.28Y-51.562
X81.28Y-54.102
X81.28Y-56.642
X81.28Y-59.182
X81.28Y-62.484
X81.28Y-65.024
X81.28Y-67.564
X81.28Y-70.104
X81.28Y-72.644
X81.28Y-75.184
X81.28Y-77.724
X81.28Y-80.264
X81.28Y-82.804
X81.28Y-85.344
X81.28Y-87.884
X81.28Y-90.424
X81.28Y-92.964
X81.28Y-95.504
X83.312Y-119.776
X83.312Y-127.396
X83.312Y-141.219
X83.312Y-148.839
X83.566Y-99.563
X83.566Y-107.183
X84.328Y-130.302
X84.328Y-137.922
X84.582Y-109.728
X84.582Y-117.348
X85.852Y-119.776
X85.852Y-127.396
X85.852Y-141.219
X85.852Y-148.839
X86.106Y-99.563
X86.106Y-107.183
X87.884Y-130.302
X87.884Y-137.922
X88.138Y-109.728
X88.138Y-117.348
X88.392Y-119.776
X88.392Y-127.396
X88.392Y-141.219
X88.392Y-148.839
X88.646Y-99.563
X88.646Y-107.183
X88.9Y-20.32
X88.9Y-22.86
X88.9Y-25.4
X88.9Y-27.94
X88.9Y-30.48
X88.9Y-33.02
X88.9Y-35.56
X88.9Y-38.1
X88.9Y-41.402
X88.9Y-43.942
X88.9Y-46.482
X88.9Y-49.022
X88.9Y-51.562
X88.9Y-54.102
X88.9Y-56.642
X88.9Y-59.182
X88.9Y-62.484
X88.9Y-65.024
X88.9Y-67.564
X88.9Y-70.104
X88.9Y-72.644
X88.9Y-75.184
X88.9Y-77.724
X88.9Y-80.264
X88.9Y-82.804
X88.9Y-85.344
X88.9Y-87.884
X88.9Y-90.424
X88.9Y-92.964
X88.9Y-95.504
X90.932Y-119.776
X90.932Y-127.396
X90.932Y-141.219
X90.932Y-148.839
X91.186Y-30.226
X91.186Y-35.814
X91.186Y-38.354
X91.186Y-40.894
X91.186Y-43.434
X91.186Y-45.974
X91.186Y-48.514
X91.186Y-51.054
X91.186Y-53.594
X91.186Y-56.896
X91.186Y-59.436
X91.186Y-61.976
X91.186Y-64.516
X91.186Y-67.056
X91.186Y-69.596
X91.186Y-72.136
X91.186Y-74.676
X91.186Y-77.724
X91.186Y-80.264
X91.186Y-82.804
X91.186Y-85.344
X91.186Y-87.884
X91.186Y-90.424
X91.186Y-92.964
X91.186Y-95.504
X91.186Y-99.563
X91.186Y-107.183
X91.44Y-130.302
X91.44Y-137.922
X91.694Y-19.807
X91.694Y-27.427
X91.694Y-109.728
X91.694Y-117.348
X93.472Y-119.776
X93.472Y-127.396
X93.472Y-141.219
X93.472Y-148.839
X93.726Y-99.563
X93.726Y-107.183
X94.234Y-19.807
X94.234Y-27.427
X94.996Y-130.302
X94.996Y-137.922
X95.25Y-109.728
X95.25Y-117.348
X96.012Y-119.776
X96.012Y-127.396
X96.012Y-141.219
X96.012Y-148.839
X96.266Y-99.563
X96.266Y-107.183
X96.774Y-19.807
X96.774Y-27.427
X98.552Y-119.776
X98.552Y-127.396
X98.552Y-130.302
X98.552Y-137.922
X98.552Y-141.219
X98.552Y-148.839
X98.806Y-30.226
X98.806Y-35.814
X98.806Y-38.354
X98.806Y-40.894
X98.806Y-43.434
X98.806Y-45.974
X98.806Y-48.514
X98.806Y-51.054
X98.806Y-53.594
X98.806Y-56.896
X98.806Y-59.436
X98.806Y-61.976
X98.806Y-64.516
X98.806Y-67.056
X98.806Y-69.596
X98.806Y-72.136
X98.806Y-74.676
X98.806Y-77.724
X98.806Y-80.264
X98.806Y-82.804
X98.806Y-85.344
X98.806Y-87.884
X98.806Y-90.424
X98.806Y-92.964
X98.806Y-95.504
X98.806Y-99.563
X98.806Y-107.183
X98.806Y-109.728
X98.806Y-117.348
X99.314Y-19.807
X99.314Y-27.427
X101.092Y-30.226
X101.092Y-35.814
X101.092Y-38.354
X101.092Y-40.894
X101.092Y-43.434
X101.092Y-45.974
X101.092Y-48.514
X101.092Y-51.054
X101.092Y-53.594
X101.092Y-56.896
X101.092Y-59.436
X101.092Y-61.976
X101.092Y-64.516
X101.092Y-67.056
X101.092Y-69.596
X101.092Y-72.136
X101.092Y-74.676
X101.092Y-77.724
X101.092Y-80.264
X101.092Y-82.804
X101.092Y-85.344
X101.092Y-87.884
X101.092Y-90.424
X101.092Y-92.964
X101.092Y-95.504
X101.854Y-19.807
X101.854Y-27.427
X104.394Y-19.807
X104.394Y-27.427
X106.934Y-19.807
X106.934Y-27.427
X108.712Y-30.226
X108.712Y-35.814
X108.712Y-38.354
X108.712Y-40.894
X108.712Y-43.434
X108.712Y-45.974
X108.712Y-48.514
X108.712Y-51.054
X108.712Y-53.594
X108.712Y-56.896
X108.712Y-59.436
X108.712Y-61.976
X108.712Y-64.516
X108.712Y-67.056
X108.712Y-69.596
X108.712Y-72.136
X108.712Y-74.676
X108.712Y-77.724
X108.712Y-80.264
X108.712Y-82.804
X108.712Y-85.344
X108.712Y-87.884
X108.712Y-90.424
X108.712Y-92.964
X108.712Y-95.504
X109.474Y-19.807
X109.474Y-27.427
X110.998Y-30.226
X110.998Y-75.946
X110.998Y-78.486
X110.998Y-81.026
X110.998Y-83.566
X110.998Y-86.106
X110.998Y-88.646
X110.998Y-91.186
X110.998Y-93.726
X111.003Y-33.782
X111.003Y-36.322
X111.003Y-38.862
X111.003Y-41.402
X111.003Y-43.942
X111.003Y-46.482
X111.003Y-49.022
X111.003Y-51.562
X111.003Y-54.864
X111.003Y-57.404
X111.003Y-59.944
X111.003Y-62.484
X111.003Y-65.024
X111.003Y-67.564
X111.003Y-70.104
X111.003Y-72.644
X111.003Y-115.57
X111.003Y-118.11
X111.003Y-120.65
X111.003Y-123.19
X111.003Y-125.73
X111.003Y-128.27
X111.003Y-130.81
X111.003Y-134.112
X111.003Y-136.652
X111.003Y-139.192
X111.003Y-141.732
X111.003Y-144.272
X111.003Y-146.812
X111.003Y-149.352
X111.008Y-97.028
X111.008Y-99.568
X111.008Y-102.108
X111.008Y-104.648
X111.008Y-107.188
X111.008Y-109.728
X111.008Y-112.268
X112.776Y-19.802
X112.776Y-27.422
X115.316Y-19.802
X115.316Y-27.422
X117.856Y-19.802
X117.856Y-27.422
X118.618Y-30.226
X118.618Y-75.946
X118.618Y-78.486
X118.618Y-81.026
X118.618Y-83.566
X118.618Y-86.106
X118.618Y-88.646
X118.618Y-91.186
X118.618Y-93.726
X118.623Y-33.782
X118.623Y-36.322
X118.623Y-38.862
X118.623Y-41.402
X118.623Y-43.942
X118.623Y-46.482
X118.623Y-49.022
X118.623Y-51.562
X118.623Y-54.864
X118.623Y-57.404
X118.623Y-59.944
X118.623Y-62.484
X118.623Y-65.024
X118.623Y-67.564
X118.623Y-70.104
X118.623Y-72.644
X118.623Y-115.57
X118.623Y-118.11
X118.623Y-120.65
X118.623Y-123.19
X118.623Y-125.73
X118.623Y-128.27
X118.623Y-130.81
X118.623Y-134.112
X118.623Y-136.652
X118.623Y-139.192
X118.623Y-141.732
X118.623Y-144.272
X118.623Y-146.812
X118.623Y-149.352
X118.628Y-97.028
X118.628Y-99.568
X118.628Y-102.108
X118.628Y-104.648
X118.628Y-107.188
X118.628Y-109.728
X118.628Y-112.268
X120.396Y-19.802
X120.396Y-27.422
X120.904Y-30.226
X120.904Y-61.214
X120.904Y-87.884
X120.904Y-90.424
X120.904Y-92.964
X120.904Y-95.504
X120.904Y-98.044
X120.904Y-100.584
X120.904Y-103.124
X120.904Y-105.664
X120.904Y-108.966
X120.904Y-111.506
X120.904Y-114.046
X120.904Y-116.586
X120.904Y-119.126
X120.904Y-121.666
X120.904Y-124.206
X120.904Y-126.746
X120.904Y-130.048
X120.904Y-132.588
X120.904Y-135.128
X120.904Y-137.668
X120.904Y-140.208
X120.904Y-142.748
X120.904Y-145.288
X120.904Y-147.828
X120.909Y-66.802
X120.909Y-69.342
X120.909Y-71.882
X120.909Y-74.422
X120.909Y-76.962
X120.909Y-79.502
X120.909Y-82.042
X120.909Y-84.582
X121.1Y-36.322
X121.1Y-48.006
X123.444Y-58.674
X123.444Y-63.754
X123.638Y-22.352
X123.64Y-33.782
X123.64Y-38.862
X123.64Y-45.466
X123.64Y-50.546
X126.178Y-19.812
X126.178Y-24.892
X128.524Y-30.226
X128.524Y-87.884
X128.524Y-90.424
X128.524Y-92.964
X128.524Y-95.504
X128.524Y-98.044
X128.524Y-100.584
X128.524Y-103.124
X128.524Y-105.664
X128.524Y-108.966
X128.524Y-111.506
X128.524Y-114.046
X128.524Y-116.586
X128.524Y-119.126
X128.524Y-121.666
X128.524Y-124.206
X128.524Y-126.746
X128.524Y-130.048
X128.524Y-132.588
X128.524Y-135.128
X128.524Y-137.668
X128.524Y-140.208
X128.524Y-142.748
X128.524Y-145.288
X128.524Y-147.828
X128.529Y-66.802
X128.529Y-69.342
X128.529Y-71.882
X128.529Y-74.422
X128.529Y-76.962
X128.529Y-79.502
X128.529Y-82.042
X128.529Y-84.582
X130.81Y-30.226
X138.43Y-30.226
T4
X21.338Y-30.092
X21.338Y-32.592
X21.338Y-35.092
X24.638Y-30.092
X24.638Y-32.592
X24.638Y-35.092
X27.603Y-30.092
X27.603Y-32.592
X27.603Y-35.092
X30.903Y-30.092
X30.903Y-32.592
X30.903Y-35.092
X33.868Y-30.092
X33.868Y-32.592
X33.868Y-35.092
X37.168Y-30.092
X37.168Y-32.592
X37.168Y-35.092
X40.182Y-30.052
X40.182Y-32.552
X40.182Y-35.052
X43.482Y-30.052
X43.482Y-32.552
X43.482Y-35.052
T5
X72.216Y-100.33
X72.216Y-102.87
X72.216Y-105.41
X72.216Y-107.95
X72.216Y-110.49
X72.216Y-113.03
X72.216Y-115.57
X72.216Y-118.11
X72.216Y-120.65
X72.216Y-123.19
X72.216Y-125.73
X72.216Y-128.27
X72.216Y-130.81
X72.216Y-133.35
X72.216Y-135.89
X72.216Y-138.43
X72.216Y-140.97
X72.216Y-143.51
X72.216Y-146.05
X72.216Y-148.59
X77.216Y-100.33
X77.216Y-102.87
X77.216Y-105.41
X77.216Y-107.95
X77.216Y-110.49
X77.216Y-113.03
X77.216Y-115.57
X77.216Y-118.11
X77.216Y-120.65
X77.216Y-123.19
X77.216Y-125.73
X77.216Y-128.27
X77.216Y-130.81
X77.216Y-133.35
X77.216Y-135.89
X77.216Y-138.43
X77.216Y-140.97
X77.216Y-143.51
X77.216Y-146.05
X77.216Y-148.59
X102.616Y-100.33
X102.616Y-102.87
X102.616Y-105.41
X102.616Y-107.95
X102.616Y-110.49
X102.616Y-113.03
X102.616Y-115.57
X102.616Y-118.11
X102.616Y-120.65
X102.616Y-123.19
X102.616Y-125.73
X102.616Y-128.27
X102.616Y-130.81
X102.616Y-133.35
X102.616Y-135.89
X102.616Y-138.43
X102.616Y-140.97
X102.616Y-143.51
X102.616Y-146.05
X102.616Y-148.59
X107.616Y-100.33
X107.616Y-102.87
X107.616Y-105.41
X107.616Y-107.95
X107.616Y-110.49
X107.616Y-113.03
X107.616Y-115.57
X107.616Y-118.11
X107.616Y-120.65
X107.616Y-123.19
X107.616Y-125.73
X107.616Y-128.27
X107.616Y-130.81
X107.616Y-133.35
X107.616Y-135.89
X107.616Y-138.43
X107.616Y-140.97
X107.616Y-143.51
X107.616Y-146.05
X107.616Y-148.59
X129.804Y-44.434
X129.804Y-46.724
X129.804Y-49.014
X129.804Y-51.304
X129.804Y-53.594
X131.704Y-43.289
X131.704Y-45.579
X131.704Y-47.869
X131.704Y-50.159
X131.704Y-52.449
X132.334Y-67.056
X132.334Y-69.596
X132.334Y-72.136
X132.334Y-74.676
X132.334Y-77.216
X132.334Y-79.756
X132.334Y-82.296
X132.334Y-84.836
X132.334Y-88.646
X132.334Y-91.186
X132.334Y-93.726
X132.334Y-96.266
X132.334Y-98.806
X132.334Y-101.346
X132.334Y-103.886
X132.334Y-106.426
X132.334Y-108.966
X132.334Y-111.506
X132.334Y-114.046
X132.334Y-116.586
X132.334Y-119.126
X132.334Y-121.666
X132.334Y-124.206
X132.334Y-126.746
X132.334Y-129.286
X132.334Y-131.826
X132.334Y-134.366
X132.334Y-136.906
X133.604Y-44.434
X133.604Y-46.724
X133.604Y-49.014
X133.604Y-51.304
X133.604Y-53.594
X134.874Y-67.056
X134.874Y-69.596
X134.874Y-72.136
X134.874Y-74.676
X134.874Y-77.216
X134.874Y-79.756
X134.874Y-82.296
X134.874Y-84.836
X134.874Y-88.646
X134.874Y-91.186
X134.874Y-93.726
X134.874Y-96.266
X134.874Y-98.806
X134.874Y-101.346
X134.874Y-103.886
X134.874Y-106.426
X134.874Y-108.966
X134.874Y-111.506
X134.874Y-114.046
X134.874Y-116.586
X134.874Y-119.126
X134.874Y-121.666
X134.874Y-124.206
X134.874Y-126.746
X134.874Y-129.286
X134.874Y-131.826
X134.874Y-134.366
X134.874Y-136.906
T6
X39.676Y-20.574
X39.676Y-25.074
X46.176Y-20.574
X46.176Y-25.074
T7
X23.876Y-22.606
X23.876Y-124.606
X131.694Y-36.249
X131.694Y-61.249
X133.876Y-22.606
X133.876Y-145.606
M30
