M48
; DRILL file {KiCad 9.0.6} date 2025-11-27T23:01:02-0500
; FORMAT={-:-/ absolute / metric / decimal}
; #@! TF.CreationDate,2025-11-27T23:01:02-05:00
; #@! TF.GenerationSoftware,Kicad,Pcbnew,9.0.6
; #@! TF.FileFunction,Plated,1,4,PTH
FMAT,2
METRIC
; #@! TA.AperFunction,Plated,PTH,ViaDrill
T1C0.300
; #@! TA.AperFunction,Plated,PTH,ComponentDrill
T2C0.800
; #@! TA.AperFunction,Plated,PTH,ComponentDrill
T3C0.900
; #@! TA.AperFunction,Plated,PTH,ComponentDrill
T4C1.000
; #@! TA.AperFunction,Plated,PTH,ComponentDrill
T5C1.100
; #@! TA.AperFunction,Plated,PTH,ComponentDrill
T6C3.200
%
G90
G05
T1
X19.305Y-62.953
X21.976Y-183.544
X22.228Y-91.248
X22.374Y-177.271
X22.86Y-130.81
X23.536Y-88.669
X24.314Y-51.535
X24.314Y-72.221
X24.378Y-38.754
X24.503Y-56.509
X27.868Y-86.124
X28.854Y-129.57
X29.649Y-77.567
X30.002Y-92.583
X30.243Y-72.459
X32.373Y-137.986
X35.405Y-60.231
X36.434Y-130.861
X36.558Y-21.578
X36.794Y-66.311
X37.094Y-172.584
X38.061Y-100.895
X38.525Y-118.994
X38.525Y-128.237
X38.525Y-140.189
X39.137Y-107.682
X40.079Y-90.938
X44.517Y-134.515
X44.858Y-144.851
X45.066Y-152.009
X45.477Y-167.619
X47.18Y-96.344
X47.224Y-135.082
X49.993Y-128.518
X50.344Y-90.824
X50.742Y-66.311
X50.837Y-116.899
X51.467Y-39.087
X51.839Y-92.907
X53.089Y-105.963
X54.61Y-16.415
X56.416Y-86.033
X57.194Y-174.745
X57.546Y-130.913
X57.671Y-61.262
X60.694Y-152.913
X60.991Y-86.668
X61.084Y-127.578
X63.342Y-111.648
X63.756Y-84.539
X64.142Y-109.286
X64.262Y-83.058
X64.555Y-97.009
X64.643Y-78.232
X64.874Y-105.302
X64.994Y-158.742
X66.232Y-157.508
X66.655Y-105.276
X66.675Y-30.672
X67.041Y-85.108
X67.188Y-114.415
X68.04Y-156.861
X68.296Y-77.268
X68.461Y-95.885
X71.119Y-114.832
X71.445Y-54.529
X71.559Y-51.118
X72.049Y-119.605
X72.306Y-83.484
X72.389Y-131.323
X72.662Y-32.073
X73.963Y-57.144
X74.038Y-38.979
X74.074Y-161.268
X74.713Y-174.052
X74.95Y-32.062
X75.031Y-69.334
X75.418Y-110.51
X75.796Y-71.361
X76.004Y-137.233
X76.044Y-47.484
X79.713Y-71.517
X80.099Y-63.209
X80.334Y-51.635
X80.464Y-87.134
X80.772Y-45.009
X81.089Y-106.765
X81.139Y-23.005
X81.212Y-151.545
X81.546Y-122.817
X81.658Y-101.082
X81.751Y-39.138
X81.816Y-53.937
X82.47Y-75.21
X82.984Y-103.577
X83.116Y-147.774
X84.202Y-67.392
X85.615Y-98.817
X85.713Y-22.913
X86.584Y-57.866
X87.727Y-133.657
X87.881Y-90.346
X88.228Y-93.528
X88.346Y-132.586
X88.427Y-43.382
X88.501Y-107.899
X88.747Y-60.783
X88.747Y-77.36
X89.537Y-16.554
X89.539Y-90.599
X89.612Y-56.503
X90.123Y-135.657
X91.446Y-66.379
X91.73Y-178.028
X91.847Y-99.014
X92.137Y-94.542
X92.54Y-179.229
X93.397Y-157.919
X93.512Y-130.35
X93.608Y-116.525
X93.767Y-105.292
X94.082Y-109.705
X94.329Y-47.484
X94.329Y-36.625
X95.294Y-107.634
X95.894Y-141.213
X95.898Y-73.557
X95.935Y-36.843
X95.94Y-163.043
X95.96Y-172.799
X96.077Y-47.703
X96.513Y-41.455
X96.617Y-149.202
X96.68Y-21.637
X97.033Y-110.108
X97.145Y-81.778
X97.307Y-37.961
X97.307Y-39.052
X97.316Y-39.866
X97.484Y-83.129
X97.544Y-32.717
X97.703Y-100.882
X98.929Y-98.127
X98.965Y-47.703
X99.29Y-80.73
X99.592Y-79.839
X99.7Y-148.952
X99.793Y-93.212
X101.175Y-141.871
X101.619Y-136.349
X101.636Y-185.385
X101.878Y-24.693
X102.289Y-44.803
X103.325Y-150.805
X103.417Y-163.829
X103.454Y-68.904
X104.223Y-32.608
X104.361Y-15.748
X104.412Y-54.314
X104.773Y-66.39
X105.105Y-75.92
X106.008Y-95.862
X106.141Y-122.893
X106.156Y-53.964
X106.728Y-85.894
X106.767Y-61.469
X107.379Y-88.346
X107.71Y-112.622
X108.042Y-179.349
X108.143Y-85.342
X111.176Y-139.066
X111.178Y-100.115
X111.266Y-84.042
X112.617Y-39.265
X113.078Y-87.173
X113.255Y-167.081
X113.862Y-73.66
X115.029Y-29.84
X115.048Y-117.569
X115.071Y-45.088
X115.439Y-164.343
X115.568Y-178.702
X119.266Y-89.952
X121.386Y-122.458
X121.666Y-67.31
X122.709Y-77.316
X124.915Y-143.144
X125.113Y-149.611
X125.933Y-119.703
X127.231Y-21.177
X128.078Y-154.964
X128.078Y-188.447
X130.208Y-66.258
X131.892Y-97.975
X132.867Y-125.863
X134.239Y-71.247
X135.711Y-29.835
X136.358Y-27.909
X140.335Y-83.82
T2
X20.32Y-41.91
X20.32Y-44.45
X20.32Y-46.99
X20.32Y-49.53
X20.32Y-52.07
X20.32Y-54.61
X20.32Y-57.15
X20.32Y-59.69
X20.32Y-87.63
X20.32Y-90.17
X20.32Y-92.71
X20.32Y-95.25
X20.32Y-97.79
X20.32Y-100.33
X20.32Y-102.87
X20.32Y-107.95
X20.32Y-110.49
X20.32Y-113.03
X20.32Y-115.57
X20.32Y-118.11
X20.32Y-120.65
X20.32Y-123.19
X20.32Y-128.27
X20.32Y-130.81
X20.32Y-133.35
X20.32Y-135.89
X20.32Y-138.43
X20.32Y-140.97
X20.32Y-143.51
X20.32Y-148.59
X20.32Y-151.13
X20.32Y-153.67
X20.32Y-156.21
X20.32Y-158.75
X20.32Y-161.29
X20.32Y-163.83
X20.32Y-166.37
X20.32Y-172.72
X20.32Y-175.26
X20.32Y-177.8
X20.32Y-180.34
X20.32Y-182.88
X20.32Y-185.42
X20.32Y-187.96
X20.32Y-190.5
X20.325Y-64.77
X20.325Y-67.31
X20.325Y-69.85
X20.325Y-72.39
X20.325Y-74.93
X20.325Y-77.47
X20.325Y-80.01
X20.325Y-82.55
X21.59Y-20.32
X21.59Y-35.56
X27.94Y-41.91
X27.94Y-44.45
X27.94Y-46.99
X27.94Y-49.53
X27.94Y-52.07
X27.94Y-54.61
X27.94Y-57.15
X27.94Y-59.69
X27.94Y-87.63
X27.94Y-90.17
X27.94Y-92.71
X27.94Y-95.25
X27.94Y-97.79
X27.94Y-100.33
X27.94Y-102.87
X27.94Y-107.95
X27.94Y-110.49
X27.94Y-113.03
X27.94Y-115.57
X27.94Y-118.11
X27.94Y-120.65
X27.94Y-123.19
X27.94Y-128.27
X27.94Y-130.81
X27.94Y-133.35
X27.94Y-135.89
X27.94Y-138.43
X27.94Y-140.97
X27.94Y-143.51
X27.94Y-148.59
X27.94Y-151.13
X27.94Y-153.67
X27.94Y-156.21
X27.94Y-158.75
X27.94Y-161.29
X27.94Y-163.83
X27.94Y-166.37
X27.94Y-172.72
X27.94Y-175.26
X27.94Y-177.8
X27.94Y-180.34
X27.94Y-182.88
X27.94Y-185.42
X27.94Y-187.96
X27.94Y-190.5
X27.945Y-64.77
X27.945Y-67.31
X27.945Y-69.85
X27.945Y-72.39
X27.945Y-74.93
X27.945Y-77.47
X27.945Y-80.01
X27.945Y-82.55
X29.21Y-20.32
X29.21Y-35.56
X34.29Y-19.05
X34.29Y-21.59
X34.29Y-24.13
X34.29Y-26.67
X34.29Y-29.21
X34.29Y-31.75
X34.29Y-34.29
X34.29Y-39.37
X34.29Y-41.91
X34.29Y-44.45
X34.29Y-46.99
X34.29Y-49.53
X34.29Y-52.07
X34.29Y-54.61
X34.29Y-57.15
X34.29Y-62.23
X34.29Y-64.77
X34.29Y-67.31
X34.29Y-69.85
X34.29Y-72.39
X34.29Y-74.93
X34.29Y-77.47
X34.29Y-102.87
X34.29Y-105.41
X34.29Y-107.95
X34.29Y-110.49
X34.29Y-113.03
X34.29Y-115.57
X34.29Y-118.11
X34.29Y-123.19
X34.29Y-125.73
X34.29Y-128.27
X34.29Y-130.81
X34.29Y-133.35
X34.29Y-135.89
X34.29Y-138.43
X34.29Y-143.51
X34.29Y-146.05
X34.29Y-148.59
X34.29Y-151.13
X34.29Y-153.67
X34.29Y-156.21
X34.29Y-158.75
X34.29Y-171.45
X34.29Y-176.53
X34.29Y-179.07
X34.29Y-181.61
X34.29Y-184.15
X34.29Y-186.69
X34.29Y-189.23
X34.29Y-191.77
X34.29Y-194.31
X34.295Y-82.55
X34.295Y-85.09
X34.295Y-87.63
X34.295Y-90.17
X34.295Y-92.71
X34.295Y-95.25
X34.295Y-97.79
X41.91Y-19.05
X41.91Y-21.59
X41.91Y-24.13
X41.91Y-26.67
X41.91Y-29.21
X41.91Y-31.75
X41.91Y-34.29
X41.91Y-39.37
X41.91Y-41.91
X41.91Y-44.45
X41.91Y-46.99
X41.91Y-49.53
X41.91Y-52.07
X41.91Y-54.61
X41.91Y-57.15
X41.91Y-62.23
X41.91Y-64.77
X41.91Y-67.31
X41.91Y-69.85
X41.91Y-72.39
X41.91Y-74.93
X41.91Y-77.47
X41.91Y-102.87
X41.91Y-105.41
X41.91Y-107.95
X41.91Y-110.49
X41.91Y-113.03
X41.91Y-115.57
X41.91Y-118.11
X41.91Y-123.19
X41.91Y-125.73
X41.91Y-128.27
X41.91Y-130.81
X41.91Y-133.35
X41.91Y-135.89
X41.91Y-138.43
X41.91Y-143.51
X41.91Y-146.05
X41.91Y-148.59
X41.91Y-151.13
X41.91Y-153.67
X41.91Y-156.21
X41.91Y-158.75
X41.91Y-171.45
X41.91Y-176.53
X41.91Y-179.07
X41.91Y-181.61
X41.91Y-184.15
X41.91Y-186.69
X41.91Y-189.23
X41.91Y-191.77
X41.91Y-194.31
X41.915Y-82.55
X41.915Y-85.09
X41.915Y-87.63
X41.915Y-90.17
X41.915Y-92.71
X41.915Y-95.25
X41.915Y-97.79
X48.26Y-41.91
X48.26Y-44.45
X48.26Y-46.99
X48.26Y-49.53
X48.26Y-52.07
X48.26Y-54.61
X48.26Y-57.15
X48.26Y-59.69
X48.26Y-64.77
X48.26Y-67.31
X48.26Y-69.85
X48.26Y-72.39
X48.26Y-74.93
X48.26Y-77.47
X48.26Y-80.01
X48.26Y-82.55
X48.26Y-87.63
X48.26Y-90.17
X48.26Y-92.71
X48.26Y-95.25
X48.26Y-97.79
X48.26Y-100.33
X48.26Y-102.87
X48.26Y-107.95
X48.26Y-110.49
X48.26Y-113.03
X48.26Y-115.57
X48.26Y-118.11
X48.26Y-120.65
X48.26Y-123.19
X48.26Y-125.73
X48.26Y-153.67
X48.26Y-156.21
X48.26Y-158.75
X48.26Y-161.29
X48.26Y-163.83
X48.26Y-166.37
X48.26Y-168.91
X48.26Y-171.45
X48.26Y-176.53
X48.26Y-179.07
X48.26Y-181.61
X48.26Y-184.15
X48.26Y-186.69
X48.26Y-189.23
X48.26Y-191.77
X48.26Y-194.31
X48.265Y-130.81
X48.265Y-133.35
X48.265Y-135.89
X48.265Y-138.43
X48.265Y-140.97
X48.265Y-143.51
X48.265Y-146.05
X48.265Y-148.59
X49.53Y-27.94
X49.53Y-35.56
X52.07Y-27.94
X52.07Y-35.56
X54.61Y-27.94
X54.61Y-35.56
X55.88Y-41.91
X55.88Y-44.45
X55.88Y-46.99
X55.88Y-49.53
X55.88Y-52.07
X55.88Y-54.61
X55.88Y-57.15
X55.88Y-59.69
X55.88Y-64.77
X55.88Y-67.31
X55.88Y-69.85
X55.88Y-72.39
X55.88Y-74.93
X55.88Y-77.47
X55.88Y-80.01
X55.88Y-82.55
X55.88Y-87.63
X55.88Y-90.17
X55.88Y-92.71
X55.88Y-95.25
X55.88Y-97.79
X55.88Y-100.33
X55.88Y-102.87
X55.88Y-107.95
X55.88Y-110.49
X55.88Y-113.03
X55.88Y-115.57
X55.88Y-118.11
X55.88Y-120.65
X55.88Y-123.19
X55.88Y-125.73
X55.88Y-153.67
X55.88Y-156.21
X55.88Y-158.75
X55.88Y-161.29
X55.88Y-163.83
X55.88Y-166.37
X55.88Y-168.91
X55.88Y-171.45
X55.88Y-176.53
X55.88Y-179.07
X55.88Y-181.61
X55.88Y-184.15
X55.88Y-186.69
X55.88Y-189.23
X55.88Y-191.77
X55.88Y-194.31
X55.885Y-130.81
X55.885Y-133.35
X55.885Y-135.89
X55.885Y-138.43
X55.885Y-140.97
X55.885Y-143.51
X55.885Y-146.05
X55.885Y-148.59
X57.15Y-27.94
X57.15Y-35.56
X59.69Y-27.94
X59.69Y-35.56
X62.23Y-27.94
X62.23Y-35.56
X62.23Y-41.91
X62.23Y-44.45
X62.23Y-46.99
X62.23Y-49.53
X62.23Y-52.07
X62.23Y-54.61
X62.23Y-57.15
X62.23Y-59.69
X62.235Y-64.77
X62.235Y-67.31
X62.235Y-69.85
X62.235Y-72.39
X62.235Y-74.93
X62.235Y-77.47
X62.235Y-80.01
X62.235Y-82.55
X62.235Y-87.63
X62.235Y-90.17
X62.235Y-92.71
X62.235Y-95.25
X62.235Y-97.79
X62.235Y-100.33
X62.235Y-102.87
X62.235Y-105.41
X62.235Y-110.49
X62.235Y-113.03
X62.235Y-115.57
X62.235Y-118.11
X62.235Y-120.65
X62.235Y-123.19
X62.235Y-125.73
X62.235Y-128.27
X62.235Y-156.21
X62.235Y-158.75
X62.235Y-161.29
X62.235Y-163.83
X62.235Y-166.37
X62.235Y-168.91
X62.235Y-171.45
X62.235Y-176.53
X62.235Y-179.07
X62.235Y-181.61
X62.235Y-184.15
X62.235Y-186.69
X62.235Y-189.23
X62.235Y-191.77
X62.235Y-194.31
X62.24Y-133.35
X62.24Y-135.89
X62.24Y-138.43
X62.24Y-140.97
X62.24Y-143.51
X62.24Y-146.05
X62.24Y-148.59
X62.24Y-151.13
X64.77Y-27.94
X64.77Y-35.56
X67.31Y-27.94
X67.31Y-35.56
X69.85Y-41.91
X69.85Y-44.45
X69.85Y-46.99
X69.85Y-49.53
X69.85Y-52.07
X69.85Y-54.61
X69.85Y-57.15
X69.85Y-59.69
X69.855Y-64.77
X69.855Y-67.31
X69.855Y-69.85
X69.855Y-72.39
X69.855Y-74.93
X69.855Y-77.47
X69.855Y-80.01
X69.855Y-82.55
X69.855Y-87.63
X69.855Y-90.17
X69.855Y-92.71
X69.855Y-95.25
X69.855Y-97.79
X69.855Y-100.33
X69.855Y-102.87
X69.855Y-105.41
X69.855Y-110.49
X69.855Y-113.03
X69.855Y-115.57
X69.855Y-118.11
X69.855Y-120.65
X69.855Y-123.19
X69.855Y-125.73
X69.855Y-128.27
X69.855Y-156.21
X69.855Y-158.75
X69.855Y-161.29
X69.855Y-163.83
X69.855Y-166.37
X69.855Y-168.91
X69.855Y-171.45
X69.855Y-176.53
X69.855Y-179.07
X69.855Y-181.61
X69.855Y-184.15
X69.855Y-186.69
X69.855Y-189.23
X69.855Y-191.77
X69.855Y-194.31
X69.86Y-133.35
X69.86Y-135.89
X69.86Y-138.43
X69.86Y-140.97
X69.86Y-143.51
X69.86Y-146.05
X69.86Y-148.59
X69.86Y-151.13
X74.93Y-27.935
X74.93Y-35.555
X74.93Y-41.91
X74.93Y-49.53
X77.47Y-27.935
X77.47Y-35.555
X77.47Y-41.91
X77.47Y-49.53
X77.47Y-58.42
X77.47Y-60.96
X77.47Y-63.5
X77.47Y-66.04
X77.47Y-68.58
X77.47Y-71.12
X77.47Y-73.66
X77.47Y-76.2
X77.47Y-78.74
X77.47Y-81.28
X77.47Y-83.82
X77.47Y-86.36
X77.47Y-88.9
X77.47Y-91.44
X77.47Y-128.27
X77.47Y-130.81
X77.47Y-133.35
X77.47Y-135.89
X77.47Y-138.43
X77.47Y-140.97
X77.47Y-143.51
X77.47Y-146.05
X77.47Y-165.1
X77.47Y-167.64
X77.47Y-170.18
X77.47Y-172.72
X77.47Y-175.26
X77.47Y-177.8
X77.47Y-180.34
X77.47Y-182.88
X77.475Y-102.87
X77.475Y-105.41
X77.475Y-107.95
X77.475Y-110.49
X77.475Y-113.03
X77.475Y-115.57
X77.475Y-118.11
X77.475Y-120.65
X80.01Y-27.935
X80.01Y-35.555
X80.01Y-41.91
X80.01Y-49.53
X82.55Y-27.935
X82.55Y-35.555
X82.55Y-41.91
X82.55Y-49.53
X85.09Y-27.935
X85.09Y-35.555
X85.09Y-41.91
X85.09Y-49.53
X85.09Y-58.42
X85.09Y-60.96
X85.09Y-63.5
X85.09Y-66.04
X85.09Y-68.58
X85.09Y-71.12
X85.09Y-73.66
X85.09Y-76.2
X85.09Y-78.74
X85.09Y-81.28
X85.09Y-83.82
X85.09Y-86.36
X85.09Y-88.9
X85.09Y-91.44
X85.09Y-128.27
X85.09Y-130.81
X85.09Y-133.35
X85.09Y-135.89
X85.09Y-138.43
X85.09Y-140.97
X85.09Y-143.51
X85.09Y-146.05
X85.09Y-165.1
X85.09Y-167.64
X85.09Y-170.18
X85.09Y-172.72
X85.09Y-175.26
X85.09Y-177.8
X85.09Y-180.34
X85.09Y-182.88
X85.095Y-102.87
X85.095Y-105.41
X85.095Y-107.95
X85.095Y-110.49
X85.095Y-113.03
X85.095Y-115.57
X85.095Y-118.11
X85.095Y-120.65
X87.63Y-27.935
X87.63Y-35.555
X87.63Y-41.91
X87.63Y-49.53
X88.9Y-165.1
X88.9Y-172.72
X88.9Y-175.26
X88.9Y-182.88
X90.17Y-27.935
X90.17Y-35.555
X90.17Y-41.91
X90.17Y-49.53
X91.44Y-128.27
X91.44Y-130.81
X91.44Y-133.35
X91.44Y-135.89
X91.44Y-138.43
X91.44Y-140.97
X91.44Y-143.51
X91.44Y-146.05
X91.445Y-102.87
X91.445Y-105.41
X91.445Y-107.95
X91.445Y-110.49
X91.445Y-113.03
X91.445Y-115.57
X91.445Y-118.11
X91.445Y-120.65
X92.71Y-27.935
X92.71Y-35.555
X92.71Y-41.91
X92.71Y-49.53
X93.98Y-58.42
X93.98Y-60.96
X93.98Y-63.5
X93.98Y-66.04
X93.98Y-68.58
X93.98Y-71.12
X93.98Y-73.66
X93.98Y-76.2
X93.98Y-78.74
X93.98Y-81.28
X93.98Y-83.82
X93.98Y-86.36
X93.98Y-88.9
X93.98Y-91.44
X93.98Y-165.1
X93.98Y-172.72
X93.98Y-175.26
X93.98Y-182.88
X97.79Y-165.1
X97.79Y-167.64
X97.79Y-170.18
X97.79Y-172.72
X97.79Y-175.26
X97.79Y-177.8
X97.79Y-180.34
X97.79Y-182.88
X99.06Y-41.91
X99.06Y-49.53
X99.06Y-128.27
X99.06Y-130.81
X99.06Y-133.35
X99.06Y-135.89
X99.06Y-138.43
X99.06Y-140.97
X99.06Y-143.51
X99.06Y-146.05
X99.065Y-102.87
X99.065Y-105.41
X99.065Y-107.95
X99.065Y-110.49
X99.065Y-113.03
X99.065Y-115.57
X99.065Y-118.11
X99.065Y-120.65
X100.33Y-19.05
X100.33Y-21.59
X100.33Y-24.13
X100.33Y-26.67
X100.33Y-29.21
X100.33Y-31.75
X100.33Y-34.29
X100.33Y-36.83
X101.6Y-41.91
X101.6Y-49.53
X101.6Y-58.42
X101.6Y-60.96
X101.6Y-63.5
X101.6Y-66.04
X101.6Y-68.58
X101.6Y-71.12
X101.6Y-73.66
X101.6Y-76.2
X101.6Y-78.74
X101.6Y-81.28
X101.6Y-83.82
X101.6Y-86.36
X101.6Y-88.9
X101.6Y-91.44
X104.14Y-41.91
X104.14Y-49.53
X105.41Y-102.87
X105.41Y-105.41
X105.41Y-107.95
X105.41Y-110.49
X105.41Y-113.03
X105.41Y-115.57
X105.41Y-118.11
X105.41Y-120.65
X105.41Y-128.27
X105.41Y-130.81
X105.41Y-133.35
X105.41Y-135.89
X105.41Y-138.43
X105.41Y-140.97
X105.41Y-143.51
X105.41Y-146.05
X105.41Y-165.1
X105.41Y-167.64
X105.41Y-170.18
X105.41Y-172.72
X105.41Y-175.26
X105.41Y-177.8
X105.41Y-180.34
X105.41Y-182.88
X106.68Y-41.91
X106.68Y-49.53
X107.95Y-19.05
X107.95Y-21.59
X107.95Y-24.13
X107.95Y-26.67
X107.95Y-29.21
X107.95Y-31.75
X107.95Y-34.29
X107.95Y-36.83
X109.22Y-41.91
X109.22Y-49.53
X109.22Y-54.61
X109.22Y-57.15
X109.22Y-59.69
X109.22Y-62.23
X109.22Y-64.77
X109.22Y-67.31
X109.22Y-69.85
X109.22Y-72.39
X109.22Y-165.1
X109.22Y-172.72
X109.22Y-175.26
X109.22Y-182.88
X109.225Y-78.74
X109.225Y-81.28
X109.225Y-83.82
X109.225Y-86.36
X109.225Y-88.9
X109.225Y-91.44
X109.225Y-93.98
X109.225Y-96.52
X111.755Y-19.05
X111.755Y-21.59
X111.755Y-24.13
X111.755Y-26.67
X111.755Y-29.21
X111.755Y-31.75
X111.755Y-34.29
X111.755Y-36.83
X111.76Y-41.91
X111.76Y-49.53
X113.03Y-102.87
X113.03Y-105.41
X113.03Y-107.95
X113.03Y-110.49
X113.03Y-113.03
X113.03Y-115.57
X113.03Y-118.11
X113.03Y-120.65
X113.03Y-128.27
X113.03Y-130.81
X113.03Y-133.35
X113.03Y-135.89
X113.03Y-138.43
X113.03Y-140.97
X113.03Y-143.51
X113.03Y-146.05
X114.3Y-41.91
X114.3Y-49.53
X114.3Y-165.1
X114.3Y-172.72
X114.3Y-175.26
X114.3Y-182.88
X116.84Y-41.91
X116.84Y-49.53
X116.84Y-54.61
X116.84Y-57.15
X116.84Y-59.69
X116.84Y-62.23
X116.84Y-64.77
X116.84Y-67.31
X116.84Y-69.85
X116.84Y-72.39
X116.845Y-78.74
X116.845Y-81.28
X116.845Y-83.82
X116.845Y-86.36
X116.845Y-88.9
X116.845Y-91.44
X116.845Y-93.98
X116.845Y-96.52
X118.11Y-165.1
X118.11Y-167.64
X118.11Y-170.18
X118.11Y-172.72
X118.11Y-175.26
X118.11Y-177.8
X118.11Y-180.34
X118.11Y-182.88
X119.375Y-19.05
X119.375Y-21.59
X119.375Y-24.13
X119.375Y-26.67
X119.375Y-29.21
X119.375Y-31.75
X119.375Y-34.29
X119.375Y-36.83
X119.38Y-128.27
X119.38Y-130.81
X119.38Y-133.35
X119.38Y-135.89
X119.38Y-138.43
X119.38Y-140.97
X119.38Y-143.51
X119.38Y-146.05
X119.385Y-102.87
X119.385Y-105.41
X119.385Y-107.95
X119.385Y-110.49
X119.385Y-113.03
X119.385Y-115.57
X119.385Y-118.11
X119.385Y-120.65
X123.19Y-83.82
X123.19Y-86.36
X123.19Y-88.9
X123.19Y-91.44
X123.19Y-95.25
X123.19Y-99.06
X125.73Y-17.78
X125.73Y-22.86
X125.73Y-25.4
X125.73Y-30.48
X125.73Y-33.02
X125.73Y-38.1
X125.73Y-165.1
X125.73Y-167.64
X125.73Y-170.18
X125.73Y-172.72
X125.73Y-175.26
X125.73Y-177.8
X125.73Y-180.34
X125.73Y-182.88
X127.0Y-74.93
X127.0Y-80.01
X127.0Y-128.27
X127.0Y-130.81
X127.0Y-133.35
X127.0Y-135.89
X127.0Y-138.43
X127.0Y-140.97
X127.0Y-143.51
X127.0Y-146.05
X127.005Y-102.87
X127.005Y-105.41
X127.005Y-107.95
X127.005Y-110.49
X127.005Y-113.03
X127.005Y-115.57
X127.005Y-118.11
X127.005Y-120.65
X128.27Y-20.32
X128.27Y-27.94
X128.27Y-35.56
X129.54Y-77.47
X130.81Y-22.86
X130.81Y-27.94
X130.81Y-33.02
X130.81Y-83.82
X130.81Y-86.36
X130.81Y-88.9
X130.81Y-91.44
X130.81Y-95.25
X130.81Y-99.06
X132.08Y-111.76
X132.08Y-114.3
X132.08Y-116.84
X132.08Y-119.38
X132.08Y-121.92
X132.08Y-124.46
X132.08Y-127.0
X132.08Y-133.35
X132.08Y-135.89
X132.08Y-138.43
X132.08Y-140.97
X132.08Y-143.51
X132.08Y-146.05
X132.08Y-148.59
X132.08Y-154.94
X132.08Y-157.48
X132.08Y-160.02
X132.08Y-162.56
X132.08Y-165.1
X132.08Y-167.64
X132.08Y-170.18
X133.35Y-177.8
X133.35Y-185.42
X133.35Y-187.96
X133.35Y-195.58
X137.16Y-177.8
X137.16Y-185.42
X137.16Y-187.96
X137.16Y-195.58
X138.43Y-22.86
X138.43Y-27.94
X138.43Y-33.02
X139.7Y-111.76
X139.7Y-114.3
X139.7Y-116.84
X139.7Y-119.38
X139.7Y-121.92
X139.7Y-124.46
X139.7Y-127.0
X139.7Y-133.35
X139.7Y-135.89
X139.7Y-138.43
X139.7Y-140.97
X139.7Y-143.51
X139.7Y-146.05
X139.7Y-148.59
X139.7Y-154.94
X139.7Y-157.48
X139.7Y-160.02
X139.7Y-162.56
X139.7Y-165.1
X139.7Y-167.64
X139.7Y-170.18
T3
X135.13Y-76.2
X135.13Y-78.7
X135.13Y-81.2
X135.13Y-87.71
X135.13Y-90.21
X135.13Y-92.71
X135.13Y-99.14
X135.13Y-101.64
X135.13Y-104.14
X138.43Y-76.2
X138.43Y-78.7
X138.43Y-81.2
X138.43Y-87.71
X138.43Y-90.21
X138.43Y-92.71
X138.43Y-99.14
X138.43Y-101.64
X138.43Y-104.14
T4
X46.99Y-19.05
X46.99Y-21.59
X49.53Y-19.05
X49.53Y-21.59
X52.07Y-19.05
X52.07Y-21.59
X54.61Y-19.05
X54.61Y-21.59
X57.15Y-19.05
X57.15Y-21.59
X59.69Y-19.05
X59.69Y-21.59
X62.23Y-19.05
X62.23Y-21.59
X64.77Y-19.05
X64.77Y-21.59
X67.31Y-19.05
X67.31Y-21.59
X69.85Y-19.05
X69.85Y-21.59
X72.39Y-19.05
X72.39Y-21.59
X74.93Y-19.05
X74.93Y-21.59
X77.47Y-19.05
X77.47Y-21.59
X77.47Y-154.94
X77.47Y-161.29
X77.47Y-186.69
X77.47Y-193.04
X80.01Y-19.05
X80.01Y-21.59
X80.01Y-154.94
X80.01Y-161.29
X80.01Y-186.69
X80.01Y-193.04
X82.55Y-19.05
X82.55Y-21.59
X82.55Y-154.94
X82.55Y-161.29
X82.55Y-186.69
X82.55Y-193.04
X85.09Y-19.05
X85.09Y-21.59
X85.09Y-154.94
X85.09Y-161.29
X85.09Y-186.69
X85.09Y-193.04
X87.63Y-19.05
X87.63Y-21.59
X87.63Y-154.94
X87.63Y-161.29
X87.63Y-186.69
X87.63Y-193.04
X90.17Y-19.05
X90.17Y-21.59
X90.17Y-154.94
X90.17Y-161.29
X90.17Y-186.69
X90.17Y-193.04
X92.71Y-19.05
X92.71Y-21.59
X92.71Y-154.94
X92.71Y-161.29
X92.71Y-186.69
X92.71Y-193.04
X95.25Y-19.05
X95.25Y-21.59
X95.25Y-154.94
X95.25Y-161.29
X95.25Y-186.69
X95.25Y-193.04
X97.79Y-154.94
X97.79Y-161.29
X97.79Y-186.69
X97.79Y-193.04
X100.33Y-154.94
X100.33Y-161.29
X100.33Y-186.69
X100.33Y-193.04
X102.87Y-154.94
X102.87Y-161.29
X102.87Y-186.69
X102.87Y-193.04
X105.41Y-154.94
X105.41Y-161.29
X105.41Y-186.69
X105.41Y-193.04
X107.95Y-154.94
X107.95Y-161.29
X107.95Y-186.69
X107.95Y-193.04
X110.49Y-154.94
X110.49Y-161.29
X110.49Y-186.69
X110.49Y-193.04
X113.03Y-154.94
X113.03Y-161.29
X113.03Y-186.69
X113.03Y-193.04
X115.57Y-154.94
X115.57Y-161.29
X115.57Y-186.69
X115.57Y-193.04
X118.11Y-154.94
X118.11Y-161.29
X118.11Y-186.69
X118.11Y-193.04
X120.65Y-154.94
X120.65Y-161.29
X120.65Y-186.69
X120.65Y-193.04
X123.19Y-154.94
X123.19Y-161.29
X123.19Y-186.69
X123.19Y-193.04
X125.73Y-154.94
X125.73Y-161.29
X125.73Y-186.69
X125.73Y-193.04
X125.74Y-51.765
X125.74Y-54.055
X125.74Y-56.345
X125.74Y-58.635
X125.74Y-60.925
X127.64Y-50.62
X127.64Y-52.91
X127.64Y-55.2
X127.64Y-57.49
X127.64Y-59.78
X129.54Y-51.765
X129.54Y-54.055
X129.54Y-56.345
X129.54Y-58.635
X129.54Y-60.925
T5
X34.85Y-162.85
X34.85Y-167.35
X41.35Y-162.85
X41.35Y-167.35
T6
X127.63Y-43.58
X127.63Y-68.58
M30
