%TF.GenerationSoftware,KiCad,Pcbnew,9.0.6*%
%TF.CreationDate,2025-11-27T23:01:02-05:00*%
%TF.ProjectId,vga_video_card,7667615f-7669-4646-956f-5f636172642e,rev?*%
%TF.SameCoordinates,Original*%
%TF.FileFunction,Drillmap*%
%TF.FilePolarity,Positive*%
%FSLAX45Y45*%
G04 Gerber Fmt 4.5, Leading zero omitted, Abs format (unit mm)*
G04 Created by KiCad (PCBNEW 9.0.6) date 2025-11-27 23:01:02*
%MOMM*%
%LPD*%
G01*
G04 APERTURE LIST*
%ADD10C,0.050000*%
%ADD11C,0.200000*%
G04 APERTURE END LIST*
D10*
X14605000Y-1270000D02*
X14605000Y-19939000D01*
X14605000Y-1270000D02*
X1397000Y-1270000D01*
X1397000Y-19939000D02*
X14605000Y-19939000D01*
X1397000Y-1270000D02*
X1397000Y-19939000D01*
D11*
X1655277Y-20252984D02*
X1655277Y-20052984D01*
X1655277Y-20052984D02*
X1702896Y-20052984D01*
X1702896Y-20052984D02*
X1731467Y-20062508D01*
X1731467Y-20062508D02*
X1750515Y-20081555D01*
X1750515Y-20081555D02*
X1760039Y-20100603D01*
X1760039Y-20100603D02*
X1769562Y-20138698D01*
X1769562Y-20138698D02*
X1769562Y-20167270D01*
X1769562Y-20167270D02*
X1760039Y-20205365D01*
X1760039Y-20205365D02*
X1750515Y-20224412D01*
X1750515Y-20224412D02*
X1731467Y-20243460D01*
X1731467Y-20243460D02*
X1702896Y-20252984D01*
X1702896Y-20252984D02*
X1655277Y-20252984D01*
X1855277Y-20252984D02*
X1855277Y-20119650D01*
X1855277Y-20157746D02*
X1864801Y-20138698D01*
X1864801Y-20138698D02*
X1874324Y-20129174D01*
X1874324Y-20129174D02*
X1893372Y-20119650D01*
X1893372Y-20119650D02*
X1912420Y-20119650D01*
X1979086Y-20252984D02*
X1979086Y-20119650D01*
X1979086Y-20052984D02*
X1969562Y-20062508D01*
X1969562Y-20062508D02*
X1979086Y-20072031D01*
X1979086Y-20072031D02*
X1988610Y-20062508D01*
X1988610Y-20062508D02*
X1979086Y-20052984D01*
X1979086Y-20052984D02*
X1979086Y-20072031D01*
X2102896Y-20252984D02*
X2083848Y-20243460D01*
X2083848Y-20243460D02*
X2074324Y-20224412D01*
X2074324Y-20224412D02*
X2074324Y-20052984D01*
X2207658Y-20252984D02*
X2188610Y-20243460D01*
X2188610Y-20243460D02*
X2179086Y-20224412D01*
X2179086Y-20224412D02*
X2179086Y-20052984D01*
X2436229Y-20252984D02*
X2436229Y-20052984D01*
X2436229Y-20052984D02*
X2502896Y-20195841D01*
X2502896Y-20195841D02*
X2569563Y-20052984D01*
X2569563Y-20052984D02*
X2569563Y-20252984D01*
X2750515Y-20252984D02*
X2750515Y-20148222D01*
X2750515Y-20148222D02*
X2740991Y-20129174D01*
X2740991Y-20129174D02*
X2721944Y-20119650D01*
X2721944Y-20119650D02*
X2683848Y-20119650D01*
X2683848Y-20119650D02*
X2664801Y-20129174D01*
X2750515Y-20243460D02*
X2731467Y-20252984D01*
X2731467Y-20252984D02*
X2683848Y-20252984D01*
X2683848Y-20252984D02*
X2664801Y-20243460D01*
X2664801Y-20243460D02*
X2655277Y-20224412D01*
X2655277Y-20224412D02*
X2655277Y-20205365D01*
X2655277Y-20205365D02*
X2664801Y-20186317D01*
X2664801Y-20186317D02*
X2683848Y-20176793D01*
X2683848Y-20176793D02*
X2731467Y-20176793D01*
X2731467Y-20176793D02*
X2750515Y-20167270D01*
X2845753Y-20119650D02*
X2845753Y-20319650D01*
X2845753Y-20129174D02*
X2864801Y-20119650D01*
X2864801Y-20119650D02*
X2902896Y-20119650D01*
X2902896Y-20119650D02*
X2921943Y-20129174D01*
X2921943Y-20129174D02*
X2931467Y-20138698D01*
X2931467Y-20138698D02*
X2940991Y-20157746D01*
X2940991Y-20157746D02*
X2940991Y-20214889D01*
X2940991Y-20214889D02*
X2931467Y-20233936D01*
X2931467Y-20233936D02*
X2921943Y-20243460D01*
X2921943Y-20243460D02*
X2902896Y-20252984D01*
X2902896Y-20252984D02*
X2864801Y-20252984D01*
X2864801Y-20252984D02*
X2845753Y-20243460D01*
X3026705Y-20233936D02*
X3036229Y-20243460D01*
X3036229Y-20243460D02*
X3026705Y-20252984D01*
X3026705Y-20252984D02*
X3017182Y-20243460D01*
X3017182Y-20243460D02*
X3026705Y-20233936D01*
X3026705Y-20233936D02*
X3026705Y-20252984D01*
X3026705Y-20129174D02*
X3036229Y-20138698D01*
X3036229Y-20138698D02*
X3026705Y-20148222D01*
X3026705Y-20148222D02*
X3017182Y-20138698D01*
X3017182Y-20138698D02*
X3026705Y-20129174D01*
X3026705Y-20129174D02*
X3026705Y-20148222D01*
M02*
