<?xml version="1.0" encoding="UTF-8" standalone="no"?>
<svg xmlns="http://www.w3.org/2000/svg" version="1.1" viewBox="0 0 465 171">
   <polyline fill="none" points="220,95 350,95" stroke="rgb(0, 0, 0)" stroke-linecap="square" stroke-width="4.0"/>
   <polyline fill="none" points="107,55 110,55 180,55" stroke="rgb(0, 0, 0)" stroke-linecap="square" stroke-width="4.0"/>
   <polygon fill="none" points="61,46 95,46 105,55 95,64 61,64" stroke="rgb(0, 0, 0)" stroke-linecap="square" stroke-width="2.0"/>
   <text fill="rgb(0, 0, 0)" font-family="Monospaced" font-size="12" x="71.0" y="62.0">x8</text>
   <text fill="rgb(0, 0, 0)" font-family="Monospaced" font-size="16" font-weight="bold" x="6.0" y="63.0">v_addr</text>
   <circle cx="110.0" cy="55.0" fill="rgb(0, 0, 0)" r="2.0" stroke="none" stroke-width="2.0"/>
   <polyline fill="none" points="107,135 110,135 180,135" stroke="rgb(0, 0, 0)" stroke-linecap="square" stroke-width="4.0"/>
   <polygon fill="none" points="61,126 95,126 105,135 95,144 61,144" stroke="rgb(0, 0, 0)" stroke-linecap="square" stroke-width="2.0"/>
   <text fill="rgb(0, 0, 0)" font-family="Monospaced" font-size="12" x="71.0" y="142.0">x8</text>
   <text fill="rgb(0, 0, 0)" font-family="Monospaced" font-size="16" font-weight="bold" x="5.0" y="143.0">h_addr</text>
   <circle cx="110.0" cy="135.0" fill="rgb(0, 0, 0)" r="2.0" stroke="none" stroke-width="2.0"/>
   <polyline fill="none" points="350,15 200,15 186,15" stroke="rgb(0, 0, 0)" stroke-linecap="square" stroke-width="3.0"/>
   <polyline fill="none" points="181,55 186,55" stroke="rgb(0, 0, 0)" stroke-linecap="square" stroke-width="5.0"/>
   <polyline fill="none" points="186,16 186,84" stroke="rgb(0, 0, 0)" stroke-linecap="square" stroke-width="5.0"/>
   <text fill="rgb(0, 0, 0)" font-family="SansSerif" font-size="7" x="189.0" y="12.0">0</text>
   <text fill="rgb(0, 0, 0)" font-family="SansSerif" font-size="7" x="189.0" y="22.0">1</text>
   <text fill="rgb(0, 0, 0)" font-family="SansSerif" font-size="7" x="189.0" y="32.0">2</text>
   <text fill="rgb(0, 0, 0)" font-family="SansSerif" font-size="7" x="189.0" y="42.0">3</text>
   <text fill="rgb(0, 0, 0)" font-family="SansSerif" font-size="7" x="189.0" y="52.0">4</text>
   <text fill="rgb(0, 0, 0)" font-family="SansSerif" font-size="7" x="189.0" y="62.0">5</text>
   <text fill="rgb(0, 0, 0)" font-family="SansSerif" font-size="7" x="189.0" y="72.0">6</text>
   <text fill="rgb(0, 0, 0)" font-family="SansSerif" font-size="7" x="189.0" y="82.0">7</text>
   <circle cx="180.0" cy="55.0" fill="rgb(0, 0, 0)" r="2.0" stroke="none" stroke-width="5.0"/>
   <circle cx="200.0" cy="15.0" fill="rgb(0, 0, 0)" r="2.0" stroke="none" stroke-width="5.0"/>
   <polyline fill="none" points="181,135 186,135" stroke="rgb(0, 0, 0)" stroke-linecap="square" stroke-width="5.0"/>
   <polyline fill="none" points="186,96 186,164" stroke="rgb(0, 0, 0)" stroke-linecap="square" stroke-width="5.0"/>
   <text fill="rgb(0, 0, 0)" font-family="SansSerif" font-size="7" x="189.0" y="92.0">0</text>
   <text fill="rgb(0, 0, 0)" font-family="SansSerif" font-size="7" x="189.0" y="102.0">1</text>
   <text fill="rgb(0, 0, 0)" font-family="SansSerif" font-size="7" x="189.0" y="112.0">2</text>
   <text fill="rgb(0, 0, 0)" font-family="SansSerif" font-size="7" x="189.0" y="122.0">3</text>
   <text fill="rgb(0, 0, 0)" font-family="SansSerif" font-size="7" x="189.0" y="132.0">4</text>
   <text fill="rgb(0, 0, 0)" font-family="SansSerif" font-size="7" x="189.0" y="142.0">5</text>
   <text fill="rgb(0, 0, 0)" font-family="SansSerif" font-size="7" x="189.0" y="152.0">6</text>
   <text fill="rgb(0, 0, 0)" font-family="SansSerif" font-size="7" x="189.0" y="162.0">7</text>
   <circle cx="180.0" cy="135.0" fill="rgb(0, 0, 0)" r="2.0" stroke="none" stroke-width="5.0"/>
   <polyline fill="none" points="186,25 200,25 214,25" stroke="rgb(0, 0, 0)" stroke-linecap="square" stroke-width="3.0"/>
   <polyline fill="none" points="186,35 200,35 214,35" stroke="rgb(0, 0, 0)" stroke-linecap="square" stroke-width="3.0"/>
   <polyline fill="none" points="186,45 200,45 214,45" stroke="rgb(0, 0, 0)" stroke-linecap="square" stroke-width="3.0"/>
   <polyline fill="none" points="186,55 200,55 214,55" stroke="rgb(0, 0, 0)" stroke-linecap="square" stroke-width="3.0"/>
   <polyline fill="none" points="186,65 200,65 214,65" stroke="rgb(0, 0, 0)" stroke-linecap="square" stroke-width="3.0"/>
   <polyline fill="none" points="186,75 200,75 214,75" stroke="rgb(0, 0, 0)" stroke-linecap="square" stroke-width="3.0"/>
   <polyline fill="none" points="186,85 200,85 214,85" stroke="rgb(0, 0, 0)" stroke-linecap="square" stroke-width="3.0"/>
   <polyline fill="none" points="186,95 200,95 214,95" stroke="rgb(0, 0, 0)" stroke-linecap="square" stroke-width="3.0"/>
   <polyline fill="none" points="186,105 200,105 214,105" stroke="rgb(0, 0, 0)" stroke-linecap="square" stroke-width="3.0"/>
   <polyline fill="none" points="186,115 200,115 214,115" stroke="rgb(0, 0, 0)" stroke-linecap="square" stroke-width="3.0"/>
   <polyline fill="none" points="186,125 200,125 214,125" stroke="rgb(0, 0, 0)" stroke-linecap="square" stroke-width="3.0"/>
   <polyline fill="none" points="186,135 200,135 214,135" stroke="rgb(0, 0, 0)" stroke-linecap="square" stroke-width="3.0"/>
   <polyline fill="none" points="186,145 200,145 214,145" stroke="rgb(0, 0, 0)" stroke-linecap="square" stroke-width="3.0"/>
   <polyline fill="none" points="186,155 200,155 214,155" stroke="rgb(0, 0, 0)" stroke-linecap="square" stroke-width="3.0"/>
   <polyline fill="none" points="186,165 200,165 214,165" stroke="rgb(0, 0, 0)" stroke-linecap="square" stroke-width="3.0"/>
   <polyline fill="none" points="219,95 214,95" stroke="rgb(0, 0, 0)" stroke-linecap="square" stroke-width="5.0"/>
   <polyline fill="none" points="214,26 214,164" stroke="rgb(0, 0, 0)" stroke-linecap="square" stroke-width="5.0"/>
   <text fill="rgb(0, 0, 0)" font-family="SansSerif" font-size="7" x="207.0" y="22.0">0</text>
   <text fill="rgb(0, 0, 0)" font-family="SansSerif" font-size="7" x="207.0" y="32.0">1</text>
   <text fill="rgb(0, 0, 0)" font-family="SansSerif" font-size="7" x="207.0" y="42.0">2</text>
   <text fill="rgb(0, 0, 0)" font-family="SansSerif" font-size="7" x="207.0" y="52.0">3</text>
   <text fill="rgb(0, 0, 0)" font-family="SansSerif" font-size="7" x="207.0" y="62.0">4</text>
   <text fill="rgb(0, 0, 0)" font-family="SansSerif" font-size="7" x="207.0" y="72.0">5</text>
   <text fill="rgb(0, 0, 0)" font-family="SansSerif" font-size="7" x="207.0" y="82.0">6</text>
   <text fill="rgb(0, 0, 0)" font-family="SansSerif" font-size="7" x="207.0" y="92.0">7</text>
   <text fill="rgb(0, 0, 0)" font-family="SansSerif" font-size="7" x="207.0" y="102.0">8</text>
   <text fill="rgb(0, 0, 0)" font-family="SansSerif" font-size="7" x="207.0" y="112.0">9</text>
   <text fill="rgb(0, 0, 0)" font-family="SansSerif" font-size="7" x="203.0" y="122.0">10</text>
   <text fill="rgb(0, 0, 0)" font-family="SansSerif" font-size="7" x="203.0" y="132.0">11</text>
   <text fill="rgb(0, 0, 0)" font-family="SansSerif" font-size="7" x="203.0" y="142.0">12</text>
   <text fill="rgb(0, 0, 0)" font-family="SansSerif" font-size="7" x="203.0" y="152.0">13</text>
   <text fill="rgb(0, 0, 0)" font-family="SansSerif" font-size="7" x="203.0" y="162.0">14</text>
   <circle cx="220.0" cy="95.0" fill="rgb(0, 0, 0)" r="2.0" stroke="none" stroke-width="5.0"/>
   <circle cx="200.0" cy="25.0" fill="rgb(0, 0, 0)" r="2.0" stroke="none" stroke-width="5.0"/>
   <circle cx="200.0" cy="35.0" fill="rgb(0, 0, 0)" r="2.0" stroke="none" stroke-width="5.0"/>
   <circle cx="200.0" cy="45.0" fill="rgb(0, 0, 0)" r="2.0" stroke="none" stroke-width="5.0"/>
   <circle cx="200.0" cy="55.0" fill="rgb(0, 0, 0)" r="2.0" stroke="none" stroke-width="5.0"/>
   <circle cx="200.0" cy="65.0" fill="rgb(0, 0, 0)" r="2.0" stroke="none" stroke-width="5.0"/>
   <circle cx="200.0" cy="75.0" fill="rgb(0, 0, 0)" r="2.0" stroke="none" stroke-width="5.0"/>
   <circle cx="200.0" cy="85.0" fill="rgb(0, 0, 0)" r="2.0" stroke="none" stroke-width="5.0"/>
   <circle cx="200.0" cy="95.0" fill="rgb(0, 0, 0)" r="2.0" stroke="none" stroke-width="5.0"/>
   <circle cx="200.0" cy="105.0" fill="rgb(0, 0, 0)" r="2.0" stroke="none" stroke-width="5.0"/>
   <circle cx="200.0" cy="115.0" fill="rgb(0, 0, 0)" r="2.0" stroke="none" stroke-width="5.0"/>
   <circle cx="200.0" cy="125.0" fill="rgb(0, 0, 0)" r="2.0" stroke="none" stroke-width="5.0"/>
   <circle cx="200.0" cy="135.0" fill="rgb(0, 0, 0)" r="2.0" stroke="none" stroke-width="5.0"/>
   <circle cx="200.0" cy="145.0" fill="rgb(0, 0, 0)" r="2.0" stroke="none" stroke-width="5.0"/>
   <circle cx="200.0" cy="155.0" fill="rgb(0, 0, 0)" r="2.0" stroke="none" stroke-width="5.0"/>
   <circle cx="200.0" cy="165.0" fill="rgb(0, 0, 0)" r="2.0" stroke="none" stroke-width="5.0"/>
   <polyline fill="none" points="354,15 351,15" stroke="rgb(0, 0, 0)" stroke-linecap="square" stroke-width="3.0"/>
   <polygon fill="none" points="356,6 380,6 390,15 380,24 356,24" stroke="rgb(0, 0, 0)" stroke-linecap="square" stroke-width="2.0"/>
   <text fill="rgb(0, 0, 0)" font-family="Monospaced" font-size="12" x="356.0" y="22.0">x1</text>
   <text fill="rgb(0, 0, 0)" font-family="Monospaced" font-size="16" font-weight="bold" x="392.0" y="23.0">bank_sel</text>
   <circle cx="350.0" cy="15.0" fill="rgb(0, 0, 0)" r="2.0" stroke="none" stroke-width="2.0"/>
   <polyline fill="none" points="354,95 353,95" stroke="rgb(0, 0, 0)" stroke-linecap="square" stroke-width="4.0"/>
   <polygon fill="none" points="356,86 410,86 420,95 410,104 356,104" stroke="rgb(0, 0, 0)" stroke-linecap="square" stroke-width="2.0"/>
   <text fill="rgb(0, 0, 0)" font-family="Monospaced" font-size="12" x="367.0" y="102.0">x15</text>
   <text fill="rgb(0, 0, 0)" font-family="Monospaced" font-size="16" font-weight="bold" x="422.0" y="103.0">addr</text>
   <circle cx="350.0" cy="95.0" fill="rgb(0, 0, 0)" r="2.0" stroke="none" stroke-width="2.0"/>
</svg>
