<?xml version="1.0" encoding="UTF-8" standalone="no"?>
<svg xmlns="http://www.w3.org/2000/svg" version="1.1" viewBox="0 0 969 452">
   <polyline fill="none" points="362,295 392,295 392,285" stroke="rgb(0, 0, 0)" stroke-linecap="square" stroke-width="3.0"/>
   <polyline fill="none" points="682,205 772,205" stroke="rgb(0, 0, 0)" stroke-linecap="square" stroke-width="4.0"/>
   <polyline fill="none" points="692,55 662,55 432,55 432,175 412,175" stroke="rgb(0, 0, 0)" stroke-linecap="square" stroke-width="3.0"/>
   <polyline fill="none" points="442,435 522,435" stroke="rgb(0, 0, 0)" stroke-linecap="square" stroke-width="4.0"/>
   <polyline fill="none" points="652,255 772,255" stroke="rgb(0, 0, 0)" stroke-linecap="square" stroke-width="4.0"/>
   <polyline fill="none" points="462,395 362,395 362,435 422,435" stroke="rgb(0, 0, 0)" stroke-linecap="square" stroke-width="4.0"/>
   <polyline fill="none" points="432,355 432,345 472,345" stroke="rgb(0, 0, 0)" stroke-linecap="square" stroke-width="3.0"/>
   <polyline fill="none" points="802,75 812,75 812,105 842,105" stroke="rgb(0, 0, 0)" stroke-linecap="square" stroke-width="3.0"/>
   <polyline fill="none" points="482,395 522,395" stroke="rgb(0, 0, 0)" stroke-linecap="square" stroke-width="4.0"/>
   <polyline fill="none" points="652,215 592,215 592,245 622,245" stroke="rgb(0, 0, 0)" stroke-linecap="square" stroke-width="4.0"/>
   <polyline fill="none" points="412,195 562,195 562,265 622,265" stroke="rgb(0, 0, 0)" stroke-linecap="square" stroke-width="4.0"/>
   <polyline fill="none" points="432,175 432,345" stroke="rgb(0, 0, 0)" stroke-linecap="square" stroke-width="3.0"/>
   <polyline fill="none" points="662,55 662,165" stroke="rgb(0, 0, 0)" stroke-linecap="square" stroke-width="3.0"/>
   <polyline fill="none" points="802,65 822,65 822,75 842,75" stroke="rgb(0, 0, 0)" stroke-linecap="square" stroke-width="3.0"/>
   <polyline fill="none" points="802,55 822,55 822,45 842,45" stroke="rgb(0, 0, 0)" stroke-linecap="square" stroke-width="3.0"/>
   <polyline fill="none" points="562,195 652,195" stroke="rgb(0, 0, 0)" stroke-linecap="square" stroke-width="4.0"/>
   <polyline fill="none" points="802,45 812,45 812,15 842,15" stroke="rgb(0, 0, 0)" stroke-linecap="square" stroke-width="3.0"/>
   <polyline fill="none" points="662,25 672,25 672,45 692,45" stroke="rgb(0, 0, 0)" stroke-linecap="square" stroke-width="3.0"/>
   <polyline fill="none" points="362,315 502,315 502,215 592,215" stroke="rgb(0, 0, 0)" stroke-linecap="square" stroke-width="4.0"/>
   <circle cx="472.0" cy="345.0" fill="rgb(0, 0, 0)" r="5.0" stroke="none" stroke-width="4.0"/>
   <circle cx="592.0" cy="215.0" fill="rgb(0, 0, 0)" r="6.0" stroke="none" stroke-width="4.0"/>
   <circle cx="362.0" cy="435.0" fill="rgb(0, 0, 0)" r="6.0" stroke="none" stroke-width="4.0"/>
   <circle cx="432.0" cy="345.0" fill="rgb(0, 0, 0)" r="5.0" stroke="none" stroke-width="4.0"/>
   <circle cx="662.0" cy="165.0" fill="rgb(0, 0, 0)" r="5.0" stroke="none" stroke-width="4.0"/>
   <circle cx="562.0" cy="195.0" fill="rgb(0, 0, 0)" r="6.0" stroke="none" stroke-width="4.0"/>
   <circle cx="662.0" cy="55.0" fill="rgb(0, 0, 0)" r="5.0" stroke="none" stroke-width="4.0"/>
   <circle cx="432.0" cy="175.0" fill="rgb(0, 0, 0)" r="5.0" stroke="none" stroke-width="4.0"/>
   <polyline fill="none" points="129,295 132,295 142,295" stroke="rgb(0, 0, 0)" stroke-linecap="square" stroke-width="4.0"/>
   <polygon fill="none" points="83,286 117,286 127,295 117,304 83,304" stroke="rgb(0, 0, 0)" stroke-linecap="square" stroke-width="2.0"/>
   <text fill="rgb(0, 0, 0)" font-family="Monospaced" font-size="12" x="93.0" y="302.0">x8</text>
   <text fill="rgb(0, 0, 0)" font-family="Monospaced" font-size="16" font-weight="bold" x="5.0" y="303.0">w_h_addr</text>
   <circle cx="132.0" cy="295.0" fill="rgb(0, 0, 0)" r="2.0" stroke="none" stroke-width="2.0"/>
   <polyline fill="none" points="129,325 132,325 142,325 142,315" stroke="rgb(0, 0, 0)" stroke-linecap="square" stroke-width="4.0"/>
   <polygon fill="none" points="83,316 117,316 127,325 117,334 83,334" stroke="rgb(0, 0, 0)" stroke-linecap="square" stroke-width="2.0"/>
   <text fill="rgb(0, 0, 0)" font-family="Monospaced" font-size="12" x="93.0" y="332.0">x8</text>
   <text fill="rgb(0, 0, 0)" font-family="Monospaced" font-size="16" font-weight="bold" x="7.0" y="333.0">w_v_addr</text>
   <circle cx="132.0" cy="325.0" fill="rgb(0, 0, 0)" r="2.0" stroke="none" stroke-width="2.0"/>
   <polyline fill="none" points="159,175 162,175 192,175" stroke="rgb(0, 0, 0)" stroke-linecap="square" stroke-width="4.0"/>
   <polygon fill="none" points="113,166 147,166 157,175 147,184 113,184" stroke="rgb(0, 0, 0)" stroke-linecap="square" stroke-width="2.0"/>
   <text fill="rgb(0, 0, 0)" font-family="Monospaced" font-size="12" x="123.0" y="182.0">x8</text>
   <text fill="rgb(0, 0, 0)" font-family="Monospaced" font-size="16" font-weight="bold" x="42.0" y="183.0">r_h_addr</text>
   <circle cx="162.0" cy="175.0" fill="rgb(0, 0, 0)" r="2.0" stroke="none" stroke-width="2.0"/>
   <polyline fill="none" points="159,205 162,205 192,205 192,195" stroke="rgb(0, 0, 0)" stroke-linecap="square" stroke-width="4.0"/>
   <polygon fill="none" points="113,196 147,196 157,205 147,214 113,214" stroke="rgb(0, 0, 0)" stroke-linecap="square" stroke-width="2.0"/>
   <text fill="rgb(0, 0, 0)" font-family="Monospaced" font-size="12" x="123.0" y="212.0">x8</text>
   <text fill="rgb(0, 0, 0)" font-family="Monospaced" font-size="16" font-weight="bold" x="43.0" y="213.0">r_v_addr</text>
   <circle cx="162.0" cy="205.0" fill="rgb(0, 0, 0)" r="2.0" stroke="none" stroke-width="2.0"/>
   <polyline fill="none" points="219,435 222,435 362,435" stroke="rgb(0, 0, 0)" stroke-linecap="square" stroke-width="4.0"/>
   <polygon fill="none" points="173,426 207,426 217,435 207,444 173,444" stroke="rgb(0, 0, 0)" stroke-linecap="square" stroke-width="2.0"/>
   <text fill="rgb(0, 0, 0)" font-family="Monospaced" font-size="12" x="183.0" y="442.0">x8</text>
   <text fill="rgb(0, 0, 0)" font-family="Monospaced" font-size="16" font-weight="bold" x="116.0" y="443.0">w_data</text>
   <circle cx="222.0" cy="435.0" fill="rgb(0, 0, 0)" r="2.0" stroke="none" stroke-width="2.0"/>
   <text fill="rgb(0, 0, 0)" font-family="SansSerif" font-size="16" font-weight="bold" x="367.0" y="275.0">wbit_0</text>
   <polygon fill="none" points="364,256 420,256 420,282 402,282 392,286 382,282 364,282" stroke="rgb(0, 0, 0)" stroke-linecap="square" stroke-width="2.0"/>
   <circle cx="392.0" cy="285.0" fill="rgb(0, 0, 0)" r="2.0" stroke="none" stroke-width="2.0"/>
   <polyline fill="none" points="526,395 525,395" stroke="rgb(0, 0, 0)" stroke-linecap="square" stroke-width="4.0"/>
   <polygon fill="none" points="528,386 562,386 572,395 562,404 528,404" stroke="rgb(0, 0, 0)" stroke-linecap="square" stroke-width="2.0"/>
   <text fill="rgb(0, 0, 0)" font-family="Monospaced" font-size="12" x="533.0" y="402.0">x8</text>
   <text fill="rgb(0, 0, 0)" font-family="Monospaced" font-size="16" font-weight="bold" x="574.0" y="403.0">RAM0_data_w</text>
   <circle cx="522.0" cy="395.0" fill="rgb(0, 0, 0)" r="2.0" stroke="none" stroke-width="2.0"/>
   <polyline fill="none" points="526,435 525,435" stroke="rgb(0, 0, 0)" stroke-linecap="square" stroke-width="4.0"/>
   <polygon fill="none" points="528,426 562,426 572,435 562,444 528,444" stroke="rgb(0, 0, 0)" stroke-linecap="square" stroke-width="2.0"/>
   <text fill="rgb(0, 0, 0)" font-family="Monospaced" font-size="12" x="533.0" y="442.0">x8</text>
   <text fill="rgb(0, 0, 0)" font-family="Monospaced" font-size="16" font-weight="bold" x="574.0" y="443.0">RAM1_data_w</text>
   <circle cx="522.0" cy="435.0" fill="rgb(0, 0, 0)" r="2.0" stroke="none" stroke-width="2.0"/>
   <text fill="rgb(0, 0, 0)" font-family="SansSerif" font-size="16" font-weight="bold" x="607.0" y="31.0">wbit_0</text>
   <polygon fill="none" points="604,12 659,12 659,15 663,25 659,35 659,39 604,39" stroke="rgb(0, 0, 0)" stroke-linecap="square" stroke-width="2.0"/>
   <circle cx="662.0" cy="25.0" fill="rgb(0, 0, 0)" r="2.0" stroke="none" stroke-width="2.0"/>
   <polyline fill="none" points="776,205 775,205" stroke="rgb(0, 0, 0)" stroke-linecap="square" stroke-width="4.0"/>
   <polygon fill="none" points="778,196 822,196 832,205 822,214 778,214" stroke="rgb(0, 0, 0)" stroke-linecap="square" stroke-width="2.0"/>
   <text fill="rgb(0, 0, 0)" font-family="Monospaced" font-size="12" x="784.0" y="212.0">x15</text>
   <text fill="rgb(0, 0, 0)" font-family="Monospaced" font-size="16" font-weight="bold" x="834.0" y="213.0">RAM_a_addr</text>
   <circle cx="772.0" cy="205.0" fill="rgb(0, 0, 0)" r="2.0" stroke="none" stroke-width="2.0"/>
   <polyline fill="none" points="776,255 775,255" stroke="rgb(0, 0, 0)" stroke-linecap="square" stroke-width="4.0"/>
   <polygon fill="none" points="778,246 822,246 832,255 822,264 778,264" stroke="rgb(0, 0, 0)" stroke-linecap="square" stroke-width="2.0"/>
   <text fill="rgb(0, 0, 0)" font-family="Monospaced" font-size="12" x="784.0" y="262.0">x15</text>
   <text fill="rgb(0, 0, 0)" font-family="Monospaced" font-size="16" font-weight="bold" x="834.0" y="263.0">RAM_b_addr</text>
   <circle cx="772.0" cy="255.0" fill="rgb(0, 0, 0)" r="2.0" stroke="none" stroke-width="2.0"/>
   <polyline fill="none" points="432,375 439,356 425,356 432,375" stroke="rgb(0, 0, 0)" stroke-linecap="square" stroke-width="2.0"/>
   <circle cx="432.0" cy="380.0" fill="none" r="4.5" stroke="rgb(0, 0, 0)" stroke-width="2.0"/>
   <circle cx="432.0" cy="385.0" fill="rgb(0, 0, 0)" r="2.0" stroke="none" stroke-width="2.0"/>
   <circle cx="432.0" cy="355.0" fill="rgb(0, 0, 0)" r="2.0" stroke="none" stroke-width="2.0"/>
   <polyline fill="none" points="432,385 432,425 432,430" stroke="rgb(0, 0, 0)" stroke-linecap="square" stroke-width="3.0"/>
   <polyline fill="none" points="442,435 423,428 423,442 442,435" stroke="rgb(0, 0, 0)" stroke-linecap="square" stroke-width="2.0"/>
   <polyline fill="none" points="782,345 472,345 472,385 472,390" stroke="rgb(0, 0, 0)" stroke-linecap="square" stroke-width="3.0"/>
   <polyline fill="none" points="482,395 463,388 463,402 482,395" stroke="rgb(0, 0, 0)" stroke-linecap="square" stroke-width="2.0"/>
   <circle cx="632.0" cy="240.0" fill="rgb(192, 192, 192)" r="3.0" stroke="none" stroke-width="1.0"/>
   <text fill="rgb(128, 128, 128)" font-family="SansSerif" font-size="12" x="625.0" y="250.0">0</text>
   <polygon fill="none" points="622,235 652,245 652,265 622,275" stroke="rgb(0, 0, 0)" stroke-linecap="square" stroke-width="2.0"/>
   <text fill="rgb(0, 0, 0)" font-family="SansSerif" font-size="12" x="624.0" y="262.0">MUX</text>
   <circle cx="622.0" cy="245.0" fill="rgb(0, 0, 0)" r="2.0" stroke="none" stroke-width="2.0"/>
   <circle cx="622.0" cy="265.0" fill="rgb(0, 0, 0)" r="2.0" stroke="none" stroke-width="2.0"/>
   <circle cx="632.0" cy="235.0" fill="rgb(0, 0, 0)" r="2.0" stroke="none" stroke-width="2.0"/>
   <circle cx="652.0" cy="255.0" fill="rgb(0, 0, 0)" r="2.0" stroke="none" stroke-width="2.0"/>
   <polyline fill="none" points="662,189 662,185 662,165 632,165 632,235 632,239" stroke="rgb(0, 0, 0)" stroke-linecap="square" stroke-width="3.0"/>
   <circle cx="662.0" cy="190.0" fill="rgb(192, 192, 192)" r="3.0" stroke="none" stroke-width="1.0"/>
   <text fill="rgb(128, 128, 128)" font-family="SansSerif" font-size="12" x="655.0" y="200.0">0</text>
   <polygon fill="none" points="652,185 682,195 682,215 652,225" stroke="rgb(0, 0, 0)" stroke-linecap="square" stroke-width="2.0"/>
   <text fill="rgb(0, 0, 0)" font-family="SansSerif" font-size="12" x="654.0" y="212.0">MUX</text>
   <circle cx="652.0" cy="195.0" fill="rgb(0, 0, 0)" r="2.0" stroke="none" stroke-width="2.0"/>
   <circle cx="652.0" cy="215.0" fill="rgb(0, 0, 0)" r="2.0" stroke="none" stroke-width="2.0"/>
   <circle cx="662.0" cy="185.0" fill="rgb(0, 0, 0)" r="2.0" stroke="none" stroke-width="2.0"/>
   <circle cx="682.0" cy="205.0" fill="rgb(0, 0, 0)" r="2.0" stroke="none" stroke-width="2.0"/>
   <rect fill="rgb(0, 0, 0)" height="4" stroke="none" stroke-linecap="square" stroke-width="1.0" width="10" x="142" y="293"/>
   <text fill="rgb(64, 64, 64)" font-family="Dialog" font-size="12" x="157.0" y="299.0">v_addr</text>
   <rect fill="rgb(0, 0, 0)" height="4" stroke="none" stroke-linecap="square" stroke-width="1.0" width="10" x="142" y="313"/>
   <text fill="rgb(64, 64, 64)" font-family="Dialog" font-size="12" x="157.0" y="319.0">h_addr</text>
   <rect fill="rgb(0, 0, 0)" height="3" stroke="none" stroke-linecap="square" stroke-width="1.0" width="10" x="352" y="294"/>
   <text fill="rgb(64, 64, 64)" font-family="Dialog" font-size="12" x="299.0" y="299.0">bank_sel</text>
   <rect fill="rgb(0, 0, 0)" height="4" stroke="none" stroke-linecap="square" stroke-width="1.0" width="10" x="352" y="313"/>
   <text fill="rgb(64, 64, 64)" font-family="Dialog" font-size="12" x="323.0" y="319.0">addr</text>
   <rect fill="rgb(0, 0, 0)" height="20" stroke="none" stroke-linecap="square" stroke-width="1.0" width="200" x="152" y="325"/>
   <rect fill="none" height="60" stroke="rgb(0, 0, 0)" stroke-linecap="square" stroke-width="2.0" width="200" x="152" y="285"/>
   <text fill="rgb(255, 255, 255)" font-family="Dialog" font-size="14" font-weight="bold" x="201.0" y="339.0">addr_combiner</text>
   <circle cx="142.0" cy="295.0" fill="rgb(0, 0, 0)" r="2.0" stroke="none" stroke-width="1.0"/>
   <circle cx="142.0" cy="315.0" fill="rgb(0, 0, 0)" r="2.0" stroke="none" stroke-width="1.0"/>
   <circle cx="362.0" cy="295.0" fill="rgb(0, 0, 0)" r="2.0" stroke="none" stroke-width="1.0"/>
   <circle cx="362.0" cy="315.0" fill="rgb(0, 0, 0)" r="2.0" stroke="none" stroke-width="1.0"/>
   <rect fill="rgb(0, 0, 0)" height="4" stroke="none" stroke-linecap="square" stroke-width="1.0" width="10" x="192" y="173"/>
   <text fill="rgb(64, 64, 64)" font-family="Dialog" font-size="12" x="207.0" y="179.0">v_addr</text>
   <rect fill="rgb(0, 0, 0)" height="4" stroke="none" stroke-linecap="square" stroke-width="1.0" width="10" x="192" y="193"/>
   <text fill="rgb(64, 64, 64)" font-family="Dialog" font-size="12" x="207.0" y="199.0">h_addr</text>
   <rect fill="rgb(0, 0, 0)" height="3" stroke="none" stroke-linecap="square" stroke-width="1.0" width="10" x="402" y="174"/>
   <text fill="rgb(64, 64, 64)" font-family="Dialog" font-size="12" x="349.0" y="179.0">bank_sel</text>
   <rect fill="rgb(0, 0, 0)" height="4" stroke="none" stroke-linecap="square" stroke-width="1.0" width="10" x="402" y="193"/>
   <text fill="rgb(64, 64, 64)" font-family="Dialog" font-size="12" x="373.0" y="199.0">addr</text>
   <rect fill="rgb(0, 0, 0)" height="20" stroke="none" stroke-linecap="square" stroke-width="1.0" width="200" x="202" y="205"/>
   <rect fill="none" height="60" stroke="rgb(0, 0, 0)" stroke-linecap="square" stroke-width="2.0" width="200" x="202" y="165"/>
   <text fill="rgb(255, 255, 255)" font-family="Dialog" font-size="14" font-weight="bold" x="251.0" y="219.0">addr_combiner</text>
   <circle cx="192.0" cy="175.0" fill="rgb(0, 0, 0)" r="2.0" stroke="none" stroke-width="1.0"/>
   <circle cx="192.0" cy="195.0" fill="rgb(0, 0, 0)" r="2.0" stroke="none" stroke-width="1.0"/>
   <circle cx="412.0" cy="175.0" fill="rgb(0, 0, 0)" r="2.0" stroke="none" stroke-width="1.0"/>
   <circle cx="412.0" cy="195.0" fill="rgb(0, 0, 0)" r="2.0" stroke="none" stroke-width="1.0"/>
   <polyline fill="none" points="846,75 843,75" stroke="rgb(0, 0, 0)" stroke-linecap="square" stroke-width="3.0"/>
   <polygon fill="none" points="848,66 872,66 882,75 872,84 848,84" stroke="rgb(0, 0, 0)" stroke-linecap="square" stroke-width="2.0"/>
   <text fill="rgb(0, 0, 0)" font-family="Monospaced" font-size="12" x="848.0" y="82.0">x1</text>
   <text fill="rgb(0, 0, 0)" font-family="Monospaced" font-size="16" font-weight="bold" x="884.0" y="83.0">RAM1_CE</text>
   <circle cx="842.0" cy="75.0" fill="rgb(0, 0, 0)" r="2.0" stroke="none" stroke-width="2.0"/>
   <polyline fill="none" points="846,15 843,15" stroke="rgb(0, 0, 0)" stroke-linecap="square" stroke-width="3.0"/>
   <polygon fill="none" points="848,6 872,6 882,15 872,24 848,24" stroke="rgb(0, 0, 0)" stroke-linecap="square" stroke-width="2.0"/>
   <text fill="rgb(0, 0, 0)" font-family="Monospaced" font-size="12" x="848.0" y="22.0">x1</text>
   <text fill="rgb(0, 0, 0)" font-family="Monospaced" font-size="16" font-weight="bold" x="884.0" y="23.0">RAM0_CE</text>
   <circle cx="842.0" cy="15.0" fill="rgb(0, 0, 0)" r="2.0" stroke="none" stroke-width="2.0"/>
   <rect fill="none" height="75" stroke="rgb(0, 0, 0)" stroke-linecap="square" stroke-width="2.0" width="110" x="692" y="15"/>
   <text fill="rgb(64, 64, 64)" font-family="SansSerif" font-size="10" x="697.0" y="49.0">wbit_0</text>
   <text fill="rgb(64, 64, 64)" font-family="SansSerif" font-size="10" x="697.0" y="59.0">r_bank</text>
   <text fill="rgb(64, 64, 64)" font-family="SansSerif" font-size="10" x="752.0" y="49.0">RAM0_CE</text>
   <text fill="rgb(64, 64, 64)" font-family="SansSerif" font-size="10" x="749.0" y="59.0">RAM0_WE</text>
   <text fill="rgb(64, 64, 64)" font-family="SansSerif" font-size="10" x="752.0" y="69.0">RAM1_CE</text>
   <text fill="rgb(64, 64, 64)" font-family="SansSerif" font-size="10" x="749.0" y="79.0">RAM1_WE</text>
   <text fill="rgb(0, 0, 0)" font-family="SansSerif" font-size="12" x="702.0" y="33.0">SRAM_controller</text>
   <circle cx="692.0" cy="45.0" fill="rgb(0, 0, 0)" r="2.0" stroke="none" stroke-width="1.0"/>
   <circle cx="692.0" cy="55.0" fill="rgb(0, 0, 0)" r="2.0" stroke="none" stroke-width="1.0"/>
   <circle cx="802.0" cy="45.0" fill="rgb(0, 0, 0)" r="2.0" stroke="none" stroke-width="1.0"/>
   <circle cx="802.0" cy="55.0" fill="rgb(0, 0, 0)" r="2.0" stroke="none" stroke-width="1.0"/>
   <circle cx="802.0" cy="65.0" fill="rgb(0, 0, 0)" r="2.0" stroke="none" stroke-width="1.0"/>
   <circle cx="802.0" cy="75.0" fill="rgb(0, 0, 0)" r="2.0" stroke="none" stroke-width="1.0"/>
   <polyline fill="none" points="846,45 843,45" stroke="rgb(0, 0, 0)" stroke-linecap="square" stroke-width="3.0"/>
   <polygon fill="none" points="848,36 872,36 882,45 872,54 848,54" stroke="rgb(0, 0, 0)" stroke-linecap="square" stroke-width="2.0"/>
   <text fill="rgb(0, 0, 0)" font-family="Monospaced" font-size="12" x="848.0" y="52.0">x1</text>
   <text fill="rgb(0, 0, 0)" font-family="Monospaced" font-size="16" font-weight="bold" x="884.0" y="53.0">RAM0_WE</text>
   <circle cx="842.0" cy="45.0" fill="rgb(0, 0, 0)" r="2.0" stroke="none" stroke-width="2.0"/>
   <polyline fill="none" points="846,105 843,105" stroke="rgb(0, 0, 0)" stroke-linecap="square" stroke-width="3.0"/>
   <polygon fill="none" points="848,96 872,96 882,105 872,114 848,114" stroke="rgb(0, 0, 0)" stroke-linecap="square" stroke-width="2.0"/>
   <text fill="rgb(0, 0, 0)" font-family="Monospaced" font-size="12" x="848.0" y="112.0">x1</text>
   <text fill="rgb(0, 0, 0)" font-family="Monospaced" font-size="16" font-weight="bold" x="884.0" y="113.0">RAM1_WE</text>
   <circle cx="842.0" cy="105.0" fill="rgb(0, 0, 0)" r="2.0" stroke="none" stroke-width="2.0"/>
   <polyline fill="none" points="786,345 783,345" stroke="rgb(0, 0, 0)" stroke-linecap="square" stroke-width="3.0"/>
   <polygon fill="none" points="788,336 812,336 822,345 812,354 788,354" stroke="rgb(0, 0, 0)" stroke-linecap="square" stroke-width="2.0"/>
   <text fill="rgb(0, 0, 0)" font-family="Monospaced" font-size="12" x="788.0" y="352.0">x1</text>
   <text fill="rgb(0, 0, 0)" font-family="Monospaced" font-size="16" font-weight="bold" x="824.0" y="353.0">r_bank</text>
   <circle cx="782.0" cy="345.0" fill="rgb(0, 0, 0)" r="2.0" stroke="none" stroke-width="2.0"/>
</svg>
