<?xml version="1.0" encoding="UTF-8" standalone="no"?>
<svg xmlns="http://www.w3.org/2000/svg" version="1.1" viewBox="0 0 572 534">
   <polyline fill="none" points="216,156 216,456" stroke="rgb(0, 0, 0)" stroke-linecap="square" stroke-width="4.0"/>
   <polyline fill="none" points="336,456 336,176 536,176 536,116" stroke="rgb(0, 0, 0)" stroke-linecap="square" stroke-width="3.0"/>
   <polyline fill="none" points="216,116 276,116 276,456" stroke="rgb(0, 0, 0)" stroke-linecap="square" stroke-width="3.0"/>
   <polyline fill="none" points="216,96 306,96 306,386" stroke="rgb(0, 0, 0)" stroke-linecap="square" stroke-width="3.0"/>
   <polyline fill="none" points="216,16 316,16" stroke="rgb(0, 0, 0)" stroke-linecap="square" stroke-width="3.0"/>
   <polyline fill="none" points="216,136 246,136 246,386" stroke="rgb(0, 0, 0)" stroke-linecap="square" stroke-width="3.0"/>
   <polyline fill="none" points="536,96 566,96 566,206 366,206 366,386" stroke="rgb(0, 0, 0)" stroke-linecap="square" stroke-width="4.0"/>
   <polyline fill="none" points="246,390 246,387" stroke="rgb(0, 0, 0)" stroke-linecap="square" stroke-width="3.0"/>
   <polygon fill="none" points="255,392 255,416 246,426 237,416 237,392" stroke="rgb(0, 0, 0)" stroke-linecap="square" stroke-width="2.0"/>
   <text fill="rgb(0, 0, 0)" font-family="Monospaced" font-size="12" transform="rotate(-90.0,253.0,421.0)" x="253.0" y="421.0">x1</text>
   <text fill="rgb(0, 0, 0)" font-family="Monospaced" font-size="16" font-weight="bold" x="235.0" y="445.0">clk</text>
   <circle cx="246.0" cy="386.0" fill="rgb(0, 0, 0)" r="2.0" stroke="none" stroke-width="2.0"/>
   <polyline fill="none" points="276,460 276,457" stroke="rgb(0, 0, 0)" stroke-linecap="square" stroke-width="3.0"/>
   <polygon fill="none" points="285,462 285,486 276,496 267,486 267,462" stroke="rgb(0, 0, 0)" stroke-linecap="square" stroke-width="2.0"/>
   <text fill="rgb(0, 0, 0)" font-family="Monospaced" font-size="12" transform="rotate(-90.0,283.0,491.0)" x="283.0" y="491.0">x1</text>
   <text fill="rgb(0, 0, 0)" font-family="Monospaced" font-size="16" font-weight="bold" x="249.0" y="515.0">h_sync</text>
   <circle cx="276.0" cy="456.0" fill="rgb(0, 0, 0)" r="2.0" stroke="none" stroke-width="2.0"/>
   <polyline fill="none" points="306,390 306,387" stroke="rgb(0, 0, 0)" stroke-linecap="square" stroke-width="3.0"/>
   <polygon fill="none" points="315,392 315,416 306,426 297,416 297,392" stroke="rgb(0, 0, 0)" stroke-linecap="square" stroke-width="2.0"/>
   <text fill="rgb(0, 0, 0)" font-family="Monospaced" font-size="12" transform="rotate(-90.0,313.0,421.0)" x="313.0" y="421.0">x1</text>
   <text fill="rgb(0, 0, 0)" font-family="Monospaced" font-size="16" font-weight="bold" x="277.0" y="445.0">reading</text>
   <circle cx="306.0" cy="386.0" fill="rgb(0, 0, 0)" r="2.0" stroke="none" stroke-width="2.0"/>
   <polyline fill="none" points="336,460 336,457" stroke="rgb(0, 0, 0)" stroke-linecap="square" stroke-width="3.0"/>
   <polygon fill="none" points="345,462 345,486 336,496 327,486 327,462" stroke="rgb(0, 0, 0)" stroke-linecap="square" stroke-width="2.0"/>
   <text fill="rgb(0, 0, 0)" font-family="Monospaced" font-size="12" transform="rotate(-90.0,343.0,491.0)" x="343.0" y="491.0">x1</text>
   <text fill="rgb(0, 0, 0)" font-family="Monospaced" font-size="16" font-weight="bold" x="310.0" y="515.0">v_sync</text>
   <circle cx="336.0" cy="456.0" fill="rgb(0, 0, 0)" r="2.0" stroke="none" stroke-width="2.0"/>
   <rect fill="rgb(0, 0, 0)" height="3" stroke="none" stroke-linecap="square" stroke-width="1.0" width="10" x="316" y="15"/>
   <text fill="rgb(64, 64, 64)" font-family="Dialog" font-size="12" x="331.0" y="20.0">line_done</text>
   <rect fill="rgb(0, 0, 0)" height="3" stroke="none" stroke-linecap="square" stroke-width="1.0" width="10" x="526" y="15"/>
   <text fill="rgb(64, 64, 64)" font-family="Dialog" font-size="12" x="460.0" y="20.0">eo_vis_600</text>
   <rect fill="rgb(0, 0, 0)" height="3" stroke="none" stroke-linecap="square" stroke-width="1.0" width="10" x="526" y="35"/>
   <text fill="rgb(64, 64, 64)" font-family="Dialog" font-size="12" x="458.0" y="40.0">eo_fporch...</text>
   <rect fill="rgb(0, 0, 0)" height="3" stroke="none" stroke-linecap="square" stroke-width="1.0" width="10" x="526" y="55"/>
   <text fill="rgb(64, 64, 64)" font-family="Dialog" font-size="12" x="443.0" y="60.0">eo_syncp_605</text>
   <rect fill="rgb(0, 0, 0)" height="3" stroke="none" stroke-linecap="square" stroke-width="1.0" width="10" x="526" y="75"/>
   <text fill="rgb(64, 64, 64)" font-family="Dialog" font-size="12" x="455.0" y="80.0">eo_bporch...</text>
   <rect fill="rgb(0, 0, 0)" height="4" stroke="none" stroke-linecap="square" stroke-width="1.0" width="10" x="526" y="94"/>
   <text fill="rgb(64, 64, 64)" font-family="Dialog" font-size="12" x="488.0" y="100.0">i_addr</text>
   <rect fill="rgb(0, 0, 0)" height="3" stroke="none" stroke-linecap="square" stroke-width="1.0" width="10" x="526" y="115"/>
   <text fill="rgb(64, 64, 64)" font-family="Dialog" font-size="12" x="484.0" y="120.0">v_sync</text>
   <rect fill="rgb(0, 0, 0)" height="20" stroke="none" stroke-linecap="square" stroke-width="1.0" width="200" x="326" y="126"/>
   <rect fill="none" height="140" stroke="rgb(0, 0, 0)" stroke-linecap="square" stroke-width="2.0" width="200" x="326" y="6"/>
   <text fill="rgb(255, 255, 255)" font-family="Dialog" font-size="14" font-weight="bold" x="391.0" y="140.0">v_clk_gen</text>
   <circle cx="316.0" cy="16.0" fill="rgb(0, 0, 0)" r="2.0" stroke="none" stroke-width="1.0"/>
   <circle cx="536.0" cy="16.0" fill="rgb(0, 0, 0)" r="2.0" stroke="none" stroke-width="1.0"/>
   <circle cx="536.0" cy="36.0" fill="rgb(0, 0, 0)" r="2.0" stroke="none" stroke-width="1.0"/>
   <circle cx="536.0" cy="56.0" fill="rgb(0, 0, 0)" r="2.0" stroke="none" stroke-width="1.0"/>
   <circle cx="536.0" cy="76.0" fill="rgb(0, 0, 0)" r="2.0" stroke="none" stroke-width="1.0"/>
   <circle cx="536.0" cy="96.0" fill="rgb(0, 0, 0)" r="2.0" stroke="none" stroke-width="1.0"/>
   <circle cx="536.0" cy="116.0" fill="rgb(0, 0, 0)" r="2.0" stroke="none" stroke-width="1.0"/>
   <rect fill="rgb(0, 0, 0)" height="3" stroke="none" stroke-linecap="square" stroke-width="1.0" width="10" x="206" y="15"/>
   <text fill="rgb(64, 64, 64)" font-family="Dialog" font-size="12" x="135.0" y="20.0">eo_bporch...</text>
   <rect fill="rgb(0, 0, 0)" height="3" stroke="none" stroke-linecap="square" stroke-width="1.0" width="10" x="206" y="35"/>
   <text fill="rgb(64, 64, 64)" font-family="Dialog" font-size="12" x="140.0" y="40.0">eo_vis_200</text>
   <rect fill="rgb(0, 0, 0)" height="3" stroke="none" stroke-linecap="square" stroke-width="1.0" width="10" x="206" y="55"/>
   <text fill="rgb(64, 64, 64)" font-family="Dialog" font-size="12" x="138.0" y="60.0">eo_fporch...</text>
   <rect fill="rgb(0, 0, 0)" height="3" stroke="none" stroke-linecap="square" stroke-width="1.0" width="10" x="206" y="75"/>
   <text fill="rgb(64, 64, 64)" font-family="Dialog" font-size="12" x="123.0" y="80.0">eo_syncp_242</text>
   <rect fill="rgb(0, 0, 0)" height="3" stroke="none" stroke-linecap="square" stroke-width="1.0" width="10" x="206" y="95"/>
   <text fill="rgb(64, 64, 64)" font-family="Dialog" font-size="12" x="161.0" y="100.0">reading</text>
   <rect fill="rgb(0, 0, 0)" height="3" stroke="none" stroke-linecap="square" stroke-width="1.0" width="10" x="206" y="115"/>
   <text fill="rgb(64, 64, 64)" font-family="Dialog" font-size="12" x="163.0" y="120.0">h_sync</text>
   <rect fill="rgb(0, 0, 0)" height="3" stroke="none" stroke-linecap="square" stroke-width="1.0" width="10" x="206" y="135"/>
   <text fill="rgb(64, 64, 64)" font-family="Dialog" font-size="12" x="187.0" y="140.0">clk</text>
   <rect fill="rgb(0, 0, 0)" height="4" stroke="none" stroke-linecap="square" stroke-width="1.0" width="10" x="206" y="154"/>
   <text fill="rgb(64, 64, 64)" font-family="Dialog" font-size="12" x="168.0" y="160.0">j_addr</text>
   <rect fill="rgb(0, 0, 0)" height="20" stroke="none" stroke-linecap="square" stroke-width="1.0" width="200" x="6" y="166"/>
   <rect fill="none" height="180" stroke="rgb(0, 0, 0)" stroke-linecap="square" stroke-width="2.0" width="200" x="6" y="6"/>
   <text fill="rgb(255, 255, 255)" font-family="Dialog" font-size="14" font-weight="bold" x="71.0" y="180.0">h_clk_gen</text>
   <circle cx="216.0" cy="16.0" fill="rgb(0, 0, 0)" r="2.0" stroke="none" stroke-width="1.0"/>
   <circle cx="216.0" cy="36.0" fill="rgb(0, 0, 0)" r="2.0" stroke="none" stroke-width="1.0"/>
   <circle cx="216.0" cy="56.0" fill="rgb(0, 0, 0)" r="2.0" stroke="none" stroke-width="1.0"/>
   <circle cx="216.0" cy="76.0" fill="rgb(0, 0, 0)" r="2.0" stroke="none" stroke-width="1.0"/>
   <circle cx="216.0" cy="96.0" fill="rgb(0, 0, 0)" r="2.0" stroke="none" stroke-width="1.0"/>
   <circle cx="216.0" cy="116.0" fill="rgb(0, 0, 0)" r="2.0" stroke="none" stroke-width="1.0"/>
   <circle cx="216.0" cy="136.0" fill="rgb(0, 0, 0)" r="2.0" stroke="none" stroke-width="1.0"/>
   <circle cx="216.0" cy="156.0" fill="rgb(0, 0, 0)" r="2.0" stroke="none" stroke-width="1.0"/>
   <polyline fill="none" points="216,460 216,459" stroke="rgb(0, 0, 0)" stroke-linecap="square" stroke-width="4.0"/>
   <polygon fill="none" points="225,462 225,496 216,506 207,496 207,462" stroke="rgb(0, 0, 0)" stroke-linecap="square" stroke-width="2.0"/>
   <text fill="rgb(0, 0, 0)" font-family="Monospaced" font-size="12" transform="rotate(-90.0,223.0,496.0)" x="223.0" y="496.0">x8</text>
   <text fill="rgb(0, 0, 0)" font-family="Monospaced" font-size="16" font-weight="bold" x="192.0" y="525.0">j_addr</text>
   <circle cx="216.0" cy="456.0" fill="rgb(0, 0, 0)" r="2.0" stroke="none" stroke-width="2.0"/>
   <polyline fill="none" points="366,390 366,389" stroke="rgb(0, 0, 0)" stroke-linecap="square" stroke-width="4.0"/>
   <polygon fill="none" points="375,392 375,426 366,436 357,426 357,392" stroke="rgb(0, 0, 0)" stroke-linecap="square" stroke-width="2.0"/>
   <text fill="rgb(0, 0, 0)" font-family="Monospaced" font-size="12" transform="rotate(-90.0,373.0,426.0)" x="373.0" y="426.0">x8</text>
   <text fill="rgb(0, 0, 0)" font-family="Monospaced" font-size="16" font-weight="bold" x="342.0" y="455.0">i_addr</text>
   <circle cx="366.0" cy="386.0" fill="rgb(0, 0, 0)" r="2.0" stroke="none" stroke-width="2.0"/>
</svg>
