<?xml version="1.0" encoding="UTF-8" standalone="no"?>
<svg xmlns="http://www.w3.org/2000/svg" version="1.1" viewBox="0 0 736 270">
   <polyline fill="none" points="199,140 359,140" stroke="rgb(0, 0, 0)" stroke-linecap="square" stroke-width="3.0"/>
   <polyline fill="none" points="199,220 359,220" stroke="rgb(0, 0, 0)" stroke-linecap="square" stroke-width="3.0"/>
   <polyline fill="none" points="149,10 149,140 169,140" stroke="rgb(0, 0, 0)" stroke-linecap="square" stroke-width="3.0"/>
   <polyline fill="none" points="419,30 609,30" stroke="rgb(0, 0, 0)" stroke-linecap="square" stroke-width="3.0"/>
   <polyline fill="none" points="409,120 609,120" stroke="rgb(0, 0, 0)" stroke-linecap="square" stroke-width="3.0"/>
   <polyline fill="none" points="409,180 609,180" stroke="rgb(0, 0, 0)" stroke-linecap="square" stroke-width="3.0"/>
   <polyline fill="none" points="409,240 609,240" stroke="rgb(0, 0, 0)" stroke-linecap="square" stroke-width="3.0"/>
   <polyline fill="none" points="359,50 129,50 129,100 359,100" stroke="rgb(0, 0, 0)" stroke-linecap="square" stroke-width="3.0"/>
   <polyline fill="none" points="129,200 129,220 169,220" stroke="rgb(0, 0, 0)" stroke-linecap="square" stroke-width="3.0"/>
   <polyline fill="none" points="149,140 149,160" stroke="rgb(0, 0, 0)" stroke-linecap="square" stroke-width="3.0"/>
   <circle cx="129.0" cy="200.0" fill="rgb(0, 0, 0)" r="5.0" stroke="none" stroke-width="3.0"/>
   <circle cx="149.0" cy="160.0" fill="rgb(0, 0, 0)" r="5.0" stroke="none" stroke-width="3.0"/>
   <circle cx="129.0" cy="100.0" fill="rgb(0, 0, 0)" r="5.0" stroke="none" stroke-width="3.0"/>
   <circle cx="149.0" cy="10.0" fill="rgb(0, 0, 0)" r="5.0" stroke="none" stroke-width="3.0"/>
   <circle cx="149.0" cy="140.0" fill="rgb(0, 0, 0)" r="5.0" stroke="none" stroke-width="3.0"/>
   <polyline fill="none" points="613,30 610,30" stroke="rgb(0, 0, 0)" stroke-linecap="square" stroke-width="3.0"/>
   <polygon fill="none" points="615,21 639,21 649,30 639,39 615,39" stroke="rgb(0, 0, 0)" stroke-linecap="square" stroke-width="2.0"/>
   <text fill="rgb(0, 0, 0)" font-family="Monospaced" font-size="12" x="615.0" y="37.0">x1</text>
   <text fill="rgb(0, 0, 0)" font-family="Monospaced" font-size="16" font-weight="bold" x="651.0" y="38.0">RAM0_CE</text>
   <circle cx="609.0" cy="30.0" fill="rgb(0, 0, 0)" r="2.0" stroke="none" stroke-width="2.0"/>
   <polyline fill="none" points="613,120 610,120" stroke="rgb(0, 0, 0)" stroke-linecap="square" stroke-width="3.0"/>
   <polygon fill="none" points="615,111 639,111 649,120 639,129 615,129" stroke="rgb(0, 0, 0)" stroke-linecap="square" stroke-width="2.0"/>
   <text fill="rgb(0, 0, 0)" font-family="Monospaced" font-size="12" x="615.0" y="127.0">x1</text>
   <text fill="rgb(0, 0, 0)" font-family="Monospaced" font-size="16" font-weight="bold" x="651.0" y="128.0">RAM0_WE</text>
   <circle cx="609.0" cy="120.0" fill="rgb(0, 0, 0)" r="2.0" stroke="none" stroke-width="2.0"/>
   <polyline fill="none" points="613,180 610,180" stroke="rgb(0, 0, 0)" stroke-linecap="square" stroke-width="3.0"/>
   <polygon fill="none" points="615,171 639,171 649,180 639,189 615,189" stroke="rgb(0, 0, 0)" stroke-linecap="square" stroke-width="2.0"/>
   <text fill="rgb(0, 0, 0)" font-family="Monospaced" font-size="12" x="615.0" y="187.0">x1</text>
   <text fill="rgb(0, 0, 0)" font-family="Monospaced" font-size="16" font-weight="bold" x="651.0" y="188.0">RAM1_CE</text>
   <circle cx="609.0" cy="180.0" fill="rgb(0, 0, 0)" r="2.0" stroke="none" stroke-width="2.0"/>
   <polyline fill="none" points="613,240 610,240" stroke="rgb(0, 0, 0)" stroke-linecap="square" stroke-width="3.0"/>
   <polygon fill="none" points="615,231 639,231 649,240 639,249 615,249" stroke="rgb(0, 0, 0)" stroke-linecap="square" stroke-width="2.0"/>
   <text fill="rgb(0, 0, 0)" font-family="Monospaced" font-size="12" x="615.0" y="247.0">x1</text>
   <text fill="rgb(0, 0, 0)" font-family="Monospaced" font-size="16" font-weight="bold" x="651.0" y="248.0">RAM1_WE</text>
   <circle cx="609.0" cy="240.0" fill="rgb(0, 0, 0)" r="2.0" stroke="none" stroke-width="2.0"/>
   <polyline fill="none" points="94,40 99,40 99,10 149,10 359,10" stroke="rgb(0, 0, 0)" stroke-linecap="square" stroke-width="3.0"/>
   <polygon fill="none" points="60,31 84,31 94,40 84,49 60,49" stroke="rgb(0, 0, 0)" stroke-linecap="square" stroke-width="2.0"/>
   <text fill="rgb(0, 0, 0)" font-family="Monospaced" font-size="12" x="65.0" y="47.0">x1</text>
   <text fill="rgb(0, 0, 0)" font-family="Monospaced" font-size="16" font-weight="bold" x="7.0" y="48.0">wbit_0</text>
   <circle cx="99.0" cy="40.0" fill="rgb(0, 0, 0)" r="2.0" stroke="none" stroke-width="2.0"/>
   <polygon fill="none" points="60,91 84,91 94,100 84,109 60,109" stroke="rgb(0, 0, 0)" stroke-linecap="square" stroke-width="2.0"/>
   <text fill="rgb(0, 0, 0)" font-family="Monospaced" font-size="12" x="65.0" y="107.0">x1</text>
   <text fill="rgb(0, 0, 0)" font-family="Monospaced" font-size="16" font-weight="bold" x="5.0" y="108.0">r_bank</text>
   <circle cx="99.0" cy="100.0" fill="rgb(0, 0, 0)" r="2.0" stroke="none" stroke-width="2.0"/>
   <polyline fill="none" points="189,140 170,133 170,147 189,140" stroke="rgb(0, 0, 0)" stroke-linecap="square" stroke-width="2.0"/>
   <circle cx="194.0" cy="140.0" fill="none" r="4.5" stroke="rgb(0, 0, 0)" stroke-width="2.0"/>
   <circle cx="199.0" cy="140.0" fill="rgb(0, 0, 0)" r="2.0" stroke="none" stroke-width="2.0"/>
   <circle cx="169.0" cy="140.0" fill="rgb(0, 0, 0)" r="2.0" stroke="none" stroke-width="2.0"/>
   <polyline fill="none" points="189,220 170,213 170,227 189,220" stroke="rgb(0, 0, 0)" stroke-linecap="square" stroke-width="2.0"/>
   <circle cx="194.0" cy="220.0" fill="none" r="4.5" stroke="rgb(0, 0, 0)" stroke-width="2.0"/>
   <circle cx="199.0" cy="220.0" fill="rgb(0, 0, 0)" r="2.0" stroke="none" stroke-width="2.0"/>
   <circle cx="169.0" cy="220.0" fill="rgb(0, 0, 0)" r="2.0" stroke="none" stroke-width="2.0"/>
   <path d="M384.0,145.0 A25.0,25.0 90.0 0,0 384.0,95.0" fill="none" stroke="rgb(0, 0, 0)" stroke-width="2.0"/>
   <polyline fill="none" points="384,95 360,95 360,145 384,145" stroke="rgb(0, 0, 0)" stroke-linecap="square" stroke-width="2.0"/>
   <polyline fill="none" points="359,160 359,160 149,160 149,260 359,260" stroke="rgb(0, 0, 0)" stroke-linecap="square" stroke-width="3.0"/>
   <polyline fill="none" points="94,100 99,100 129,100 129,200 359,200 359,200" stroke="rgb(0, 0, 0)" stroke-linecap="square" stroke-width="3.0"/>
   <path d=" M409.0,180.0 C389.0,155.0 389.0,155.0 359.0,155.0 C372.0,180.0 372.0,180.0 359.0,205.0 C389.0,205.0 389.0,205.0 409.0,180.0 Z" fill="none" stroke="rgb(0, 0, 0)" stroke-linecap="square" stroke-width="2.0"/>
   <path d="M384.0,265.0 A25.0,25.0 90.0 0,0 384.0,215.0" fill="none" stroke="rgb(0, 0, 0)" stroke-width="2.0"/>
   <polyline fill="none" points="384,215 360,215 360,265 384,265" stroke="rgb(0, 0, 0)" stroke-linecap="square" stroke-width="2.0"/>
   <path d="M384.0,55.0 A25.0,25.0 90.0 0,0 384.0,5.0" fill="none" stroke="rgb(0, 0, 0)" stroke-width="2.0"/>
   <polyline fill="none" points="384,5 360,5 360,55 384,55" stroke="rgb(0, 0, 0)" stroke-linecap="square" stroke-width="2.0"/>
   <circle cx="414.0" cy="30.0" fill="none" r="4.5" stroke="rgb(0, 0, 0)" stroke-width="2.0"/>
</svg>
